<svg xmlns="http://www.w3.org/2000/svg" width="24" height="24" viewBox="0 0 24 24">
    <path fill="#44A0E3" fill-rule="evenodd" d="M19.967 0c2.104 0 3.807 1.7 3.807 3.798V16.09c-.003 0-.783-.063-4.2-1.205-.951-.317-2.228-.803-3.65-1.316a19.095 19.095 0 0 0 1.984-4.997h-4.686V6.889h5.74v-.94h-5.74V3.143H10.88c-.41 0-.41.405-.41.405V5.95H4.661v.94h5.806v1.683H5.675v.94h9.297a16.496 16.496 0 0 1-1.34 3.262c-3.016-.993-6.235-1.797-8.258-1.302-1.293.318-2.126.885-2.615 1.48-2.246 2.724-.636 6.863 4.108 6.863 2.805 0 5.506-1.56 7.6-4.129 3.123 1.497 9.304 4.066 9.307 4.068v.155a3.802 3.802 0 0 1-3.807 3.797H3.808A3.802 3.802 0 0 1 0 19.91V3.798A3.802 3.802 0 0 1 3.808 0zM5.778 12.878c2.197-.217 4.231.619 6.632 1.787-1.688 2.194-3.836 3.565-5.986 3.565-3.699 0-4.792-2.905-2.964-4.494.61-.537 1.724-.8 2.318-.858z"/>
</svg>
