<svg xmlns="http://www.w3.org/2000/svg" width="16" height="16" viewBox="0 0 16 16">
    <g fill="none" fill-rule="evenodd">
        <path d="M1 1h14v14H1z"/>
        <path fill="#196A99" d="M5.77 9.706h-.003a.253.253 0 0 1-.177-.074L3.936 7.967a.252.252 0 0 1 .001-.355l6.554-6.539A.315.315 0 0 1 10.669 1c.066 0 .13.027.177.074L12.5 2.74a.252.252 0 0 1-.001.355l-6.554 6.54a.25.25 0 0 1-.175.072m-3.268 1.528a.25.25 0 0 1-.245-.305l.477-2.151a.251.251 0 0 1 .422-.123l1.675 1.668a.252.252 0 0 1-.123.423l-2.151.482a.272.272 0 0 1-.055.006m10.745 2.734H2.753a.753.753 0 1 1 0-1.506h10.494a.753.753 0 1 1 0 1.506"/>
    </g>
</svg>
