<svg xmlns="http://www.w3.org/2000/svg" width="18" height="19" viewBox="0 0 18 19">
    <g fill="none" fill-rule="evenodd">
        <path d="M0 .5h18v18H0z"/>
        <path fill="#AFB1B2" fill-rule="nonzero" d="M10.66 6.044a1.798 1.798 0 1 1 3.596 0 1.798 1.798 0 0 1-3.596 0zM6.93 15.816a1.09 1.09 0 0 0 1.545 0l6.76-6.714c.27-.27.406-.628.401-.985V4.234c0-.757-.614-1.371-1.371-1.371h-3.883a1.365 1.365 0 0 0-.985.401l-6.714 6.758a1.09 1.09 0 0 0 0 1.545l4.247 4.25zm4.834-9.772a.691.691 0 1 0 1.382 0 .691.691 0 0 0-1.382 0z"/>
    </g>
</svg>
