<svg xmlns="http://www.w3.org/2000/svg" width="32" height="32" viewBox="0 0 32 32">
    <g fill="none" fill-rule="evenodd">
        <path fill-rule="nonzero" stroke="#626669" d="M16 .5C11.72.5 7.845 2.235 5.04 5.04 2.235 7.845.5 11.72.5 16c0 4.28 1.735 8.155 4.54 10.96C7.845 29.765 11.72 31.5 16 31.5c4.28 0 8.155-1.735 10.96-4.54 2.805-2.805 4.54-6.68 4.54-10.96 0-4.28-1.735-8.155-4.54-10.96C24.155 2.235 20.28.5 16 .5z"/>
        <g>
            <path d="M0 0H16V16H0z" transform="translate(8 8)"/>
            <path fill="#626669" fill-rule="nonzero" d="M6 2L10 6.982 7.021 6.982 7.021 12.025 14 12.025 14 14 5.064 14 5.064 6.982 2 6.982z" transform="translate(8 8) matrix(1 0 0 -1 0 16)"/>
        </g>
    </g>
</svg>
