<svg xmlns="http://www.w3.org/2000/svg" width="24" height="24" viewBox="0 0 24 24">
    <g fill="none" fill-rule="nonzero">
        <path fill="#1AAD19" d="M3.429 0H20.57a3.429 3.429 0 0 1 3.43 3.429V20.57a3.429 3.429 0 0 1-3.43 3.43H3.43A3.429 3.429 0 0 1 0 20.57V3.43A3.429 3.429 0 0 1 3.429 0z"/>
        <path fill="#FFF" d="M9.634 5.143c-3.411 0-6.205 2.239-6.205 5.08 0 1.64.93 2.987 2.483 4.031l-.62 1.798 2.169-1.048c.776.149 1.398.3 2.173.3.194 0 .387-.008.58-.024a4.309 4.309 0 0 1-.191-1.251c0-2.608 2.328-4.726 5.276-4.726.2 0 .4.014.598.035-.538-2.407-3.21-4.195-6.263-4.195zM7.618 9.177c-.464 0-.934-.3-.934-.748 0-.45.47-.746.934-.746.465 0 .775.296.775.746 0 .448-.31.748-.775.748zm4.344 0c-.465 0-.931-.3-.931-.748 0-.45.467-.746.931-.746.467 0 .777.296.777.746 0 .448-.31.748-.777.748z"/>
        <path fill="#FFF" d="M20.571 14.192c0-2.409-2.383-4.373-5.061-4.373-2.835 0-5.068 1.964-5.068 4.373 0 2.413 2.233 4.375 5.068 4.375.593 0 1.191-.151 1.788-.303l1.635.905-.449-1.507c1.196-.907 2.087-2.11 2.087-3.47zm-6.704-.754c-.297 0-.597-.298-.597-.602 0-.301.3-.604.597-.604.45 0 .746.303.746.604 0 .304-.295.602-.746.602zm3.278 0c-.295 0-.593-.298-.593-.602 0-.301.298-.604.593-.604.446 0 .745.303.745.604 0 .304-.299.602-.745.602z"/>
    </g>
</svg>
