<svg width="26" height="44" viewBox="0 0 26 44" fill="none" xmlns="http://www.w3.org/2000/svg">
<path fill-rule="evenodd" clip-rule="evenodd" d="M22.9678 31.3507V12.6494C22.9678 7.1445 18.5052 2.68189 13.0002 2.68189C7.49533 2.68189 3.03272 7.1445 3.03272 12.6494V31.3507C3.03272 36.8556 7.49533 41.3183 13.0002 41.3183C18.5052 41.3183 22.9678 36.8556 22.9678 31.3507ZM13.0002 0.181885C6.11462 0.181885 0.532715 5.76379 0.532715 12.6494V31.3507C0.532715 38.2363 6.11462 43.8183 13.0002 43.8183C19.8859 43.8183 25.4678 38.2363 25.4678 31.3507V12.6494C25.4678 5.76379 19.8859 0.181885 13.0002 0.181885Z" fill="white"/>
<path fill-rule="evenodd" clip-rule="evenodd" d="M18.3282 13.9834C16.6068 13.9834 15.2113 15.3789 15.2113 17.1003V28.0094C15.2113 29.7308 16.6068 31.1262 18.3282 31.1262C20.0496 31.1262 21.4451 29.7308 21.4451 28.0094V17.1003C21.4451 15.3789 20.0496 13.9834 18.3282 13.9834ZM12.5001 22.0001H4.00012V23.5585H12.5001V22.0001Z" fill="white"/>
</svg>
