<svg xmlns="http://www.w3.org/2000/svg" xmlns:xlink="http://www.w3.org/1999/xlink" width="32" height="32" viewBox="0 0 32 32">
    <defs>
        <path id="prefix__a" d="M4.312 8.541L1.272 5.5 0.236 6.528 4.312 10.604 13.063 1.854 12.034 0.826z"/>
    </defs>
    <g fill="none" fill-rule="evenodd">
        <path fill-rule="nonzero" stroke="#626669" d="M16 .5C11.72.5 7.845 2.235 5.04 5.04 2.235 7.845.5 11.72.5 16c0 4.28 1.735 8.155 4.54 10.96C7.845 29.765 11.72 31.5 16 31.5c4.28 0 8.155-1.735 10.96-4.54 2.805-2.805 4.54-6.68 4.54-10.96 0-4.28-1.735-8.155-4.54-10.96C24.155 2.235 20.28.5 16 .5z"/>
        <g transform="translate(9.5 10.5)">
            <mask id="prefix__b" fill="#fff">
                <use xlink:href="#prefix__a"/>
            </mask>
            <g fill="#616161" mask="url(#prefix__b)">
                <path d="M0 0H22.5V22.5H0z" transform="translate(-4.75 -5.75)"/>
            </g>
        </g>
    </g>
</svg>
