<svg xmlns="http://www.w3.org/2000/svg" width="32" height="32" viewBox="0 0 32 32">
    <g fill="none" fill-rule="evenodd">
        <path fill-rule="nonzero" stroke="#626669" d="M16 .5C11.72.5 7.845 2.235 5.04 5.04 2.235 7.845.5 11.72.5 16c0 4.28 1.735 8.155 4.54 10.96C7.845 29.765 11.72 31.5 16 31.5c4.28 0 8.155-1.735 10.96-4.54 2.805-2.805 4.54-6.68 4.54-10.96 0-4.28-1.735-8.155-4.54-10.96C24.155 2.235 20.28.5 16 .5z"/>
        <g>
            <path fill="#D8D8D8" fill-opacity="0" d="M0 0H16V16H0z" transform="translate(8 8)"/>
            <path fill="#626669" fill-rule="nonzero" d="M8 4.754c5 0 8 3.069 8 3.938 0 .869-3.5 3.854-8 3.854S0 9.56 0 8.692c0-.869 3-3.938 8-3.938zM8 6.15c-1.383 0-2.5 1.117-2.5 2.5s1.117 2.5 2.5 2.5c1.376 0 2.5-1.117 2.5-2.493C10.507 7.274 9.39 6.15 8 6.15z" transform="translate(8 8)"/>
        </g>
    </g>
</svg>
