<svg xmlns="http://www.w3.org/2000/svg" width="100" height="120" viewBox="0 0 100 120">
    <path fill="#494E51" fill-rule="nonzero" d="M50 0l1.893 1.19c13.573 8.485 28.96 13.782 44.964 15.478l3.143.35v54.345c0 18.278-16.464 34.14-48.571 48.042L50 120l-1.429-.595C16.464 105.678 0 89.64 0 71.363V17.018l3.143-.35C19.129 14.873 34.497 9.57 48.107 1.156L50 0zm0 32c-6.627 0-11.998 5.128-11.998 11.454v7.636H36C34.897 51.09 34 51.944 34 53v19.09c0 1.056.895 1.91 2 1.91h28c1.103 0 2-.854 2-1.91V53c-.002-1.056-.897-1.91-2-1.91h-2.002v-7.636C61.998 37.128 56.627 32 50 32zm0 4c4.417 0 8 3.583 8 8v8H42v-8a8 8 0 0 1 8-8z"/>
</svg>
