<svg width="24px" height="24px" viewBox="0 0 24 24" version="1.1" xmlns="http://www.w3.org/2000/svg">
  <path fill="#000000" d="M17.9994762,17.6005333 C17.9994762,15.9253333 14.8337222,14.0789333 13.9228608,13.9312 L13.9228608,13.9312 C13.6400171,13.8853333 13.6337317,13.0933333 13.6337317,13.0933333 C13.9642398,12.5402667 14.2816533,11.8938667 14.5482596,11.2208 C15.0097138,10.0170667 15.573306,6 12.5054997,6 C9.43769344,6 10.1778011,10.4741333 10.3647922,11.1290667 C10.5517832,11.784 11.3772677,13.0928 11.3772677,13.0928 C11.3772677,13.0928 11.3709823,13.8832 11.0876149,13.9306667 C10.1767535,14.0784 7,15.9248 7,17.6 C7,17.6 7.88414837,18 12.5327365,18 C17.1813247,18 18,17.6 18,17.6 L17.9994762,17.6005333 Z" id="🌈-Icon-color"></path>
</svg>
