<svg fill="none" height="120" viewBox="0 0 200 120" width="200" xmlns="http://www.w3.org/2000/svg" xmlns:xlink="http://www.w3.org/1999/xlink"><linearGradient id="a" gradientUnits="userSpaceOnUse" x1="76.6667" x2="121.66" y1="77.3712" y2="77.3712"><stop offset="0" stop-color="#e1be78"/><stop offset="1" stop-color="#e3ab36"/></linearGradient><linearGradient id="b" gradientUnits="userSpaceOnUse" x1="62.6327" x2="113.341" y1="60.24" y2="78.1388"><stop offset="0" stop-color="#e1be78"/><stop offset=".34" stop-color="#fffad1"/><stop offset=".75" stop-color="#c69632"/><stop offset=".99" stop-color="#fcdc99"/></linearGradient><linearGradient id="c" gradientUnits="userSpaceOnUse" x1="78.3462" x2="120.022" y1="29.6463" y2="29.6463"><stop offset="0" stop-color="#ffe2a8"/><stop offset="1" stop-color="#d1a149"/></linearGradient><mask id="d" height="9" maskUnits="userSpaceOnUse" width="43" x="78" y="21"><path clip-rule="evenodd" d="m97.7316 21.43c-.2966.0117-.6983.2617-.7016.5567l-.02 1.5633c-.005.3217.4183.5717.7383.58 1.1183.025 2.1067.005 3.1867.075.08.0067.152.0517.152.1333l-.009.3167c.004.0567-.04.105-.096.1083h-.012c-1.26 0-2.5784-.0583-3.8534.0434-.0666.005-.0633-.0134-.0683.0533l-.055.9266-.0067.0767c1.5167-.0883 3.0364-.0883 4.5534 0 .367-.0117.673-.2767.737-.6367l.015-1.5149c0-.31-.384-.5417-.634-.5567-1.068-.0667-2.2847-.03-3.3697-.0583-.0633-.0067-.11-.06-.1067-.1217l.02-.35c0-.0683.0467-.0883.115-.0917 1.075-.0383 2.6784.0117 3.7784.0467.082-.0133.143-.0833.143-.17v-.7667c0-.04-.075-.1616-.15-.1633l-.001-.0033c-.945-.0417-1.945-.0734-2.9304-.0734-.4816 0-.96.0084-1.425.0267zm-6.8666.5933c-.0017 0-.0034 0-.005 0l-.0067 4.375v.0567l1.1383-.15c.02-.0017.0317-.0183.03-.0383v-1.265l2.2934-.2467c.1983-.0367.4366.11.6166.4083.15.25.2434.53.2784.82l1.1283-.0833c.0233 0 .075 0 .0683-.0233-.0333-.61-.3-1.1817-.745-1.6017v-.0017.0017c.3017-.1233.4934-.4233.475-.7483.0117-.4567-.005-.9117-.0516-1.3667-.08-.3383-.375-.5817-.7234-.595-1.0216.0167-3.2383.3-4.4966.4583zm1.0766 1.9534v-.9867l.02-.0117 2.6867-.26c.1033-.0166.1967.0517.2133.1517 0 .005.0017.0083.0017.015l.005.4567c-.0033.195-.145.3633-.3383.3983l-2.5684.2533zm12.1084-2.365c-.488-.0167-.913.3233-.998.8016l-.024 2.8884c.014.3366.249.6233.577.7016 1.477.1367 2.925.2684 4.573.5184.025.005.077-.0184.077-.0417v-1.005c-.012-.0333-.035-.0567-.068-.0717-1.097-.1383-2.547-.3333-3.84-.4683-.08-.0183-.137-.0867-.14-.1683v-1.965c0-.0817.118-.125.203-.1184 1.277.1034 2.552.3384 3.83.4734.033 0 .087-.0167.087-.05l.026-.9234c-.003-.0383-.031-.07-.071-.0783-1.419-.2067-2.505-.3233-4.234-.495zm4.732.6316c-.014.6634-.105 3.525-.125 4.2867v.0633c.376.0634.788.1167 1.095.1784.035.0066.085-.0184.085-.0534-.005-.5 0-1.08-.01-1.535 0-.0316.015-.0333.048-.03.898.1617 1.773.3367 2.667.5284.018.0066.123.02.123.0766-.003.5217-.018.9667-.032 1.49-.001.0434.027.0817.067.095.35.0817.685.165 1.017.2417.088.02.101.0067.105-.0283.053-1.09.07-2.8367.086-4.3117 0-.0183-.006-.0467-.026-.0533-.365-.0834-.715-.1717-1.092-.255-.035-.0067-.053.0516-.055.085-.037.5383-.022 1.0383-.065 1.5766 0 .02 0 .03-.022.0267-.895-.185-1.846-.3867-2.738-.5517-.025-.0033-.013-.0483-.012-.075.005-.5283.004-1.0516.007-1.5783-.003-.0333-.028-.0617-.06-.0717-.352-.06-.65-.1083-1.008-.165-.03 0-.054.0334-.055.06zm-19.4154 0c-1.3116.205-2.6316.485-3.9633.7717-.215.0617-.4067.1817-.5567.3467-.1416.1283-.2316.305-.25.4983l.0134 2.7c.0083.2383.0983.465.255.6433.1066.1683.2916.2667.4933.265 1.3183-.29 2.6467-.55 3.9483-.7783.255-.06.4817-.2017.6484-.4017.145-.1517.2283-.35.2383-.5583l-.01-2.815c-.0167-.19-.1117-.3617-.2633-.4783-.1367-.125-.315-.195-.4984-.195-.0183 0-.0366.0016-.055.0016zm-3.525 3.98c-.0583-.0683-.085-.1566-.075-.245v-1.7533c.0017-.0883.0367-.1717.0967-.235.0833-.0733.1833-.1233.2917-.145.7016-.1317 1.6216-.3117 2.3416-.415.0917-.0167.1884.0017.2684.0483.0866.055.1383.1534.1333.2584l-.0233 1.7016c.005.1-.04.1934-.12.2517-.085.0617-.1834.1-.2884.115-.6916.14-1.7016.3267-2.4133.46-.02.005-.04.0083-.0617.0083-.0533 0-.1066-.0166-.15-.05zm28.8714-2.8c-.018-.0033-.018.0284-.018.045-.035 1.4634-.072 2.8217-.085 4.2867 0 .0267.013.0683.043.0767 1.767.475 3.509 1.0383 5.22 1.6916.075.0267.075-.0316.075-.0533.005-.3333.022-.6733.005-1.005-.003-.0367-.026-.0667-.061-.08-1.314-.5067-2.655-.9433-4.015-1.31-.025-.0083-.042-.0333-.044-.0617l.019-.4383c.001-.015.033-.0217.051-.015 1.412.3917 2.819.855 4.042 1.3083.022.0084.022-.0216.022-.0433.015-.375.023-.7517 0-1.1283 0-.03-.019-.0534-.047-.0617-1.253-.4567-2.568-.8833-3.962-1.265-.021-.0083-.043-.025-.043-.045v-.465c0-.02.032-.03.052-.025 1.363.3483 2.86.8717 3.905 1.255.09.035.143.02.143-.065.003-.38.017-.405-.003-.7833-.004-.0484-.007-.0967-.054-.115-1.716-.6617-3.466-1.2317-5.243-1.7067zm-31.563.1784c-1.5734.4016-3.15 1-4.7284 1.5783-.045.025-.075.0717-.0766.1233v3.545l.01.7984s1.14-.43 1.385-.51c.0333-.0117.0333-.0417.0333-.075l-.0233-1.2584c0-.0366.0033-.0866.0383-.0983l3.9267-1.2117c.1333-.0483.25-.1316.3366-.2433.0834-.1083.1267-.2417.125-.3783l-.0416-1.6534c-.02-.1933-.1267-.3666-.2867-.475-.15-.1066-.3283-.1633-.51-.1633-.0617 0-.125.0067-.1883.0217zm-3.4884 3.1049.0034-.8649c0-.0434.0483-.0767.0866-.0884.9517-.38 1.9217-.7066 2.91-.975.09-.0233.17.0767.1784.1517.02.1983.0283.4.0216.6l.0017.0033c0 .1117-.1567.2384-.2617.27l-2.8666.9333c-.005.0017-.0134.0017-.02.0017-.025 0-.0534-.0083-.0534-.0317z" fill="#fff" fill-rule="evenodd"/></mask><path d="m0 0h200v120h-200z" /><path d="m121.517 24.1645c-2.329-.9307-4.719-1.7037-7.153-2.3136-3.359-.8051-6.775-1.3515-10.219-1.6345-1.683-.1492-3.208-.2164-4.9366-.2164h-.1427c-1.6982 0-3.2235.0672-4.9141.2164-3.4311.2839-6.835.8304-10.1814 1.6345-2.4357.6132-4.8278 1.3861-7.1607 2.3136l-.1428.0522s.2856 17.3072.5035 25.8749c.0579 2.5243.5195 5.0233 1.3675 7.4035.9858 2.7071 2.2977 5.2857 3.9072 7.6797 1.6716 2.47 3.6966 4.6849 6.0111 6.5751.9101.7578 1.8689 1.4558 2.8703 2.0897 1.5702.9389 3.2076 1.7621 4.8991 2.4628.5635.2388 1.0444.4553 1.5028.6045.4608.177.9326.3241 1.4126.4404.4821-.1174.9562-.2644 1.4202-.4404.443-.1492.932-.3731 1.503-.6045 1.694-.6991 3.334-1.5224 4.906-2.4628 1-.6357 1.959-1.3337 2.871-2.0897 2.312-1.8922 4.337-4.1068 6.011-6.5751 1.607-2.3942 2.916-4.9728 3.899-7.6797.852-2.3793 1.314-4.8789 1.368-7.4035.218-8.5677.503-25.86.503-25.86-.032-.0267-.067-.0492-.105-.0671z" fill="url(#a)"/><path clip-rule="evenodd" d="m120.764 24.8237c-2.247-.9009-4.554-1.6504-6.903-2.2436-3.249-.7914-6.557-1.329-9.891-1.6079-1.626-.1495-3.094-.2243-4.72-.2243h-.1505c-1.6411 0-3.109.0673-4.7425.2168-3.322.2747-6.6169.8098-9.8539 1.6005-2.3328.5897-4.6218 1.3394-6.8503 2.2436l-.1355.0523v.3291l.0979-.0449c2.2297-.9009 4.5184-1.6504 6.8503-2.2436 3.2497-.7938 6.557-1.3339 9.8915-1.6154 1.6335-.1421 3.1014-.1944 4.7425-.2169h.1505c1.641 0 3.109.0674 4.743.2169 3.314.2733 6.601.806 9.831 1.593 2.349.5942 4.655 1.3437 6.903 2.2436l.135.0673v-.3067l-.135-.0598zm-5.03 40.3439c-1.675 2.4729-3.498 4.7606-5.817 6.6519-.908.7641-1.869 1.4638-2.876 2.094-1.57.9477-3.211 1.7752-4.908 2.4754-.165.0679-.324.1352-.477.2001h-.001v.0002c-.37.1567-.708.2997-1.027.4055-.462.1773-.9348.3247-1.4156.4412-.4983-.1157-.9886-.2631-1.4679-.4412-.2979-.1004-.6161-.2343-.966-.3816l-.0003-.0001-.0008-.0004c-.1715-.0722-.3505-.1475-.5385-.2237-1.6993-.7001-3.2703-1.6411-4.8434-2.5888-1.0055-.632-1.968-1.288-2.8773-2.0503-1.4021-1.1467-3.2295-3.1424-4.4141-4.5066-.2092-.2409-.3008-.3095-.3814-.3699-.0917-.0687-.169-.1266-.3893-.416 1.5223 2.0628 3.2872 4.0235 5.2648 5.6613.9286.758 1.9041 1.4573 2.9208 2.094 1.5177.9327 3.1 1.7574 4.735 2.468.557.2393 1.0538.4487 1.5055.6057.4606.1875.9366.3351 1.4228.4413.4818-.1131.9547-.2605 1.4147-.4413.303-.1.618-.2335.965-.3803v-.0001c.172-.0727.352-.1486.541-.2253 1.695-.7007 3.336-1.5256 4.908-2.468 1.003-.6351 1.964-1.3346 2.876-2.094 2.319-1.894 4.347-4.1136 6.022-6.5887 1.61-2.4116 2.919-5.0082 3.899-7.7329.278-.785.504-1.5868.678-2.4006-.286 1.0919-.67 2.1463-.67 2.1463-.982 2.7138-2.294 5.2981-3.907 7.6956zm-17.0862-38.205v.3141c-1.4529.0224-2.7928.0748-4.2607.2019-3.3184.2714-6.6104.799-9.8464 1.578-2.3408.6044-4.6413 1.3537-6.8879 2.2436v-.3066c2.2472-.8953 4.5505-1.6448 6.8955-2.2436 3.2339-.7777 6.5232-1.3078 9.8388-1.5855 1.4679-.1271 2.8078-.2019 4.2607-.2019zm9.3722 23.5652h12.308c.015-.0916.015-.1851 0-.2767h-12.308zm12.887-25.6368s-.037 2.2511-.097 5.5043l-.023-.0748c.083-3.0812.083-5.1228.083-5.1752v-.2543z" fill="#613e18" fill-rule="evenodd"/><path clip-rule="evenodd" d="m99.2389 32.6053v5.6554h21.6081s.073-3.9954.103-5.6554zm8.6981 11.4631-.052 5.7938h12.639c.036-1.6033.08-3.7988.12-5.7938zm-9.2966 14.7158s-.8942-.0827-3.2075-.9485c-1.0805-.4044-2.186-1.3481-2.2727-1.4297h-14.1221c.0917.3066 1.1848 3.6804 2.2282 5.2874h17.3967zm-13.0902 9.2363c.9533 1.04 2.3213 2.767 3.4063 3.6687.8783.7433 1.8067 1.4266 2.775 2.0483 1.5167.925 3.1 1.7317 4.7383 2.4183.5417.2317 1.0134.4534 1.4434.5967.31.105.59.2067.8266.2817l.1359-9.0137z" fill="#b12b28" fill-rule="evenodd"/><path clip-rule="evenodd" d="m120.879 31.1898c.012.005.024.01.034.0167l-.034-.3118c-.002.083-.002.184-.001.2948-.607-.2447-1.222-.5076-1.842-.773-1.684-.7197-3.408-1.4571-5.128-1.8966-3.245-.7884-13.043-1.6356-14.6246-1.6572l.0179 5.4271h21.5927c.002-.1668-.003-.3978-.008-.6332-.003-.1599-.006-.3219-.008-.4671.001.0001.001.0002.001.0003zm-12.995 7.5068v5.0109h12.804c.02-1.52.053-3.4492.083-5.0109zm-14.9088 17.2647-14.1279.1655-.0017.0017c-.475-1.7267-.9192-4.0143-.9909-5.8026h12.8514s.9875 4.2538 2.2691 5.6354zm-11.6426 6.1371h17.543v5.69l-13.6022.2716c-.7866-.9033-1.5133-1.8583-2.1716-2.8583-.4143-.6338-.9869-1.6786-1.4342-2.4946-.1232-.2247-.2368-.432-.335-.6087z" fill="#000" fill-rule="evenodd"/><path clip-rule="evenodd" d="m114.577 59.8761v.1121c0 .0823 0 .1047-.076.1272-.512.1217-.98.3803-1.355.7478-.028.0211-.054.0463-.075.0748 0 0 0 0 0-.0448 0-.0449 0-.1272.128-.2094.38-.3443.845-.5818 1.347-.6881.046 0 .061 0 .068-.0523zm-2.47-1.421c-.412.1625-.781.4186-1.076.7479-.214.207-.372.4642-.459.7478v.0973c.103-.2379.249-.4557.429-.6432.287-.3285.648-.5848 1.054-.7479.036-.0131.062-.0446.068-.0822v-.1945c0 .0289-.024.0524-.053.0524zm-2.604-.5908c-.561.338-1.019.8215-1.325 1.3985-.159.2998-.242.6335-.241.9722v.0823c.016-.31.09-.6143.218-.8974.306-.5595.783-1.0075 1.363-1.2789.047-.1241.067-.2565.06-.3889-.001.0545-.029.1049-.075.1346zm-3.44.7479c-.213.1755-.392.3885-.527.6282-.309.5152-.436 1.1177-.362 1.7126-.001-.5247.137-1.0406.399-1.4957.114-.2369.276-.4482.475-.6208.046-.1005.067-.211.06-.3215 0 .0314-.017.0604-.045.0747zm-5.466 4.4872s0 0 0-.0449c-.233-.1818-.378-.4537-.398-.7479-.046.3115.067.6253.301.8376.026-.0232.057-.041.09-.0523zm11.45-10.9413c-.352.1509-.658.3907-.888.6955-.246.2561-.422.5701-.512.9124v.0972c.118-.2925.289-.5612.504-.7927.23-.3096.54-.5524.896-.703.083-.0449.098-.1346.098-.329-.004.0563-.043.1041-.098.1196zm3.403.5609c-.431.0729-.837.2501-1.182.516-.312.2153-.57.4994-.753.8302 0 0-.06.0822 0 .1121.184-.271.413-.5087.678-.703.349-.2838.762-.4788 1.204-.5683.045 0 .068-.0673.075-.0898v-.1795s0 .0524-.045.0524zm2.529 1.6827s0 .0598-.053.0524c-.481.015-.946.1827-1.324.4786-.102.0667-.195.1445-.279.2318-.068.0449-.053.0898-.045.0972l.075.0673.211-.1794c.387-.3072.86-.4875 1.355-.5161.038 0 .068-.1346.06-.2468zm-15.101 4.2703v.0449c-.018.2596-.204.4773-.459.5384-.31.1372-.673.0686-.911-.172-.18.223-.472.3246-.752.2618-.226-.0473-.423-.1854-.542-.3814 0-.1047-.061-.2094-.076-.2393-.2481 0-.5041.0448-.7525.0448v.2244c.2518-.0031.5031-.0206.7525-.0524.015.0818.038.162.068.2394.119.1812.301.3119.512.3664.279.0645.571-.034.753-.2543.251.2316.615.2986.933.172.234-.0743.4-.2806.422-.5235 0-.0897 0-.1795 0-.2692zm.64 6.4765c-.332.1942-.744.1942-1.076 0-.144-.0942-.267-.2163-.362-.359 0 0-.052-.0523-.06-.0449-.231.2072-.54.3076-.85.2768-.334-.0306-.638-.2022-.836-.4712-.142-.2043-.219-.447-.218-.6955-.024.3082.061.6149.241.8675.166.2647.441.4427.752.4861.322.0228.638-.0883.874-.3066 0 0 .045 0 .06.0524.105.1365.226.2595.361.3664.329.1868.733.1868 1.062 0 .331-.2298.534-.6009.549-1.0021-.022.3342-.215.6337-.512.7927zm7.867 1.6079c-.251.0847-.491.1976-.715.3365-.333.2402-.593.566-.753.9423h.038c.15-.3254.381-.6082.669-.8226.222-.1413.46-.2568.708-.344 0 0 .045-.1346.045-.2094zm-1.799-1.047c-.756.1811-1.385.7005-1.702 1.406v.0673h.053c.352-.6023.923-1.0469 1.596-1.2415 0 0 .045-.1346.045-.2318zm-3.117-.2543c-.295.2903-.549.62-.753.9797-.151.2897-.209.6188-.165.9423 0 0 0 0 .037.0449-.016-.2607.044-.5204.174-.7479.206-.3492.459-.6687.752-.9497.028-.0973.041-.1982.038-.2992v.0524zm-2.702 1.0844c-.348.3467-.496.8451-.392 1.3237-.043-.4131.1-.8241.392-1.1218.011-.0869.011-.1748 0-.2617.008.0191.008.0407 0 .0598zm-1.4 2.6699.067-.0524c.045 0 0-.0598 0-.0673-.109-.1966-.187-.4083-.233-.6282-.044-.1839-.069-.3719-.075-.5609-.004.2513.022.5022.075.7479.045.2039.113.4021.203.5908zm1.355 2.61c-.205.1828-.494.2402-.753.1496-.258-.0869-.48-.2549-.633-.4786 0 0-.067 0-.075 0-.17.3562-.48.6269-.858.7478-.253.0396-.511-.0374-.7-.2094-.171-.1454-.268-.3595-.264-.5833 0 .6133.076.6507.264.7479.209.174.483.2503.753.2094.377-.121.688-.3916.858-.7479h.075c.153.2233.375.3913.632.4786.261.0886.55.0284.753-.157.211-.221.32-.5189.301-.8227-.026.2436-.144.4682-.331.6282zm-2.906-1.1666.113-.0972s0 0 0-.0449c-.333-.1092-.572-.4015-.61-.7479-.008.3738.187.7229.512.9124zm-21.9738-35.1496c.0287-.0291.0287-.0756 0-.1047-.0603-.1242-.0961-.2588-.1054-.3964.008.1672.0358.3329.0828.4936zm.6775 11.8686s.0527-.0823 0-.1122c-.0744-.1067-.1398-.2192-.1957-.3365-.0326-.0888-.0504-.1823-.0527-.2767-.0002.1693.0226.3378.0678.501.0459.0985.1068.1893.1806.2693zm3.1692.9722c-.0112.2636-.1715.4982-.414.6058-.251.1705-.5638.225-.8582.1496-.2025-.0678-.384-.1863-.5269-.3441-.0527-.0673-.1205 0-.1882.0374-.175.1118-.3587.2094-.5495.2917-.3757.1883-.8336.0697-1.069-.2767-.1196-.158-.1879-.3484-.1957-.546-.0116.2622.0538.522.1882.7479.2444.347.7026.4726 1.0915.2992.1925-.0839.3787-.1814.5571-.2917.0602-.0449.1054-.1271.1656-.0598.1501.1651.3388.291.5495.3664.2906.0826.6032.0304.8506-.1421.2815-.1453.4411-.4504.399-.7628zm-.8582-5.8558c-.0104.2886-.1697.5514-.4215.6956-.4179.2617-.9703.1379-1.2346-.2768-.0511-.0386-.1219-.0386-.1731 0-.2631.1794-.5768.2711-.8958.2618-.3159-.0167-.5927-.2157-.7076-.5085-.0442-.0834-.0699-.1752-.0753-.2693-.0101.1447.0104.2899.0602.4263.1087.3047.3841.52.7076.5534.326.009.6468-.0825.9184-.2617.0185-.0197.0444-.0309.0715-.0309.0272 0 .053.0112.0716.0309.2456.4493.809.6193 1.2646.3814.3162-.2094.4442-.4039.4291-.9872zm-2.8153-1.1143h.0451s0-.0598 0-.1047c-.1378-.1437-.2181-.3325-.2258-.531-.0029.2272.0598.4504.1807.6432zm4.5166 1.4958c-.3183.3292-.5419.7372-.6474 1.1816-.0564.3166-.0564.6406 0 .9572-.0349-.248-.0349-.4997 0-.7478.1044-.4318.3167-.8305.6173-1.1592 0 0 0-.0449 0-.0972v-.2019c.0045.0171.0045.0351 0 .0523zm2.8305-.9274c-.8671.5021-1.3315 1.4844-1.1668 2.4679-.08-.9109.3778-1.7855 1.1743-2.2435 0 0 0-.1945 0-.3067-.0017.025-.0158.0474-.0376.0599zm1.4302 1.7051s.0603.0748.0828.0748h.0829c.3293-.8155.8854-1.521 1.6034-2.0342 0 0 0-.1196 0-.1645v-.1496c.0006.0315-.017.0605-.0452.0748-.8068.529-1.4237 1.2989-1.7615 2.1987zm-4.08-6.3718c-.2459.1339-.4492.3334-.5872.5759-.3149.4681-.4412 1.0367-.3538 1.5929-.0077.032-.0077.0653 0 .0973-.0296-.5071.1049-1.0103.3839-1.4359.1208-.2318.3064-.424.5345-.5535v-.2991zm3.0111-.7927c-.3283.1688-.6139.4091-.8356.703-.2775.3714-.4725.7971-.5721 1.2489.0034.0616.0372.1176.0903.1496.1132-.4054.3022-.7859.5571-1.1218.192-.3016.4492-.5571.7528-.7479.0677 0 .0753-.0972.0753-.172v-.172c0 .0449-.0377.0748-.0904.0972zm3.5832-.0823c-.4508.0345-.8858.1811-1.2646.4263-.4202.2442-.72.6503-.8281 1.1218-.002.0613.0338.1176.0903.1421.1499-.4171.4327-.7742.8055-1.0171.3576-.2534.7751-.4106 1.212-.4562.0602 0 .0527-.0897.0527-.1496v-.1869c.0046.0429-.025.0821-.0678.0897zm1.4153 1.6827.1129-.0748c.4272-.2761.9059-.4643 1.4077-.5534.0526 0 .0752 0 .0752-.1421v-.1121s0 0-.0451 0c-.6239.1173-1.2132.3729-1.7239.7478-.0753.0748-.143.1197-.0376.1271zm-7.2568-7.3365c-.4633.3135-.879.6913-1.2346 1.1218-.2821.4822-.4156 1.0361-.3839 1.5929h.0602c.0295-.4688.1742-.9233.4216-1.3237.3479-.4279.7445-.8144 1.1818-1.1517.015-.1142.015-.2298 0-.344.0095.0365.0012.0753-.0225.1047zm3.937-.8974c.004.0121.004.0252 0 .0374-.4249.2746-.8253.5848-1.1969.9273-.3664.3957-.5913.9004-.6399 1.4359 0 0 0 .0374.0452.0374h.0452c.1067-.4301.3129-.8296.6022-1.1667.3437-.3434.7193-.6539 1.1216-.9273 0 0 0-.1197 0-.1496v-.1795zm4.0274-.2244c-.6021.1851-1.1586.4933-1.6336.9049-.3104.355-.5116.7911-.5796 1.2564 0 0 .0452 0 .0677.0374.1117-.3745.3103-.7177.5797-1.0021.4714-.41 1.0185-.7249 1.6109-.9274.0442-.0233.0707-.07.0678-.1196v-.2468c-.0065.0455-.0387.0833-.0828.0972zm3.4326 1.5929c-.4874 0-.9738.045-1.4528.1347-.3079.1057-.5847.2856-.8055.5235-.023.0255-.023.0642 0 .0897l.143.0374c.1863-.1655.4038-.2925.6399-.3739.4799-.0813.966-.1213 1.4529-.1197 0 0 .0828-.0374.0828-.0748v-.2169s-.0527 0-.0828 0zm-13.9264 5.3547c-.1129.3515-.2183.3889-.4893.5834-.262.171-.5841.2252-.8882.1496-.1888-.0659-.3556-.1824-.4818-.3366-.0213-.0107-.0465-.0107-.0678 0-.1844.1247-.3843.2252-.5947.2992-.3787.15-.8113.012-1.0313-.3291-.0207-.024-.0361-.052-.0451-.0823v-.0748s0-.0598 0-.0897c-.0041-.0348-.0041-.0699 0-.1047v.0673c-.0155.2179.0233.4362.1129.6357.2515.3311.6858.4689 1.084.344.1743-.1288.3357-.274.4818-.4337.0213-.0107.0464-.0107.0677 0 .1332.1635.3071.2898.5044.3664.3039.0598.6194.0008.8807-.1645.1659-.0956.2955-.2428.3689-.4188.0736-.1589.0997-.3354.0753-.5086v.0524zm13.535-2.0267c-.0516.0102-.1044-.0102-.1355-.0523-.9749-.8199-2.2011-1.2866-3.4779-1.3237-3.5326.082-7.0002.9617-10.1399 2.5726 0 0-.0602.0823 0 .1047.046.0459.0841.099.113.1571 3.1154-1.5857 6.5501-2.4547 10.0495-2.5428 1.2793.0423 2.5071.5112 3.4854 1.3312.0355.0471.0913.0748.1505.0748.0527 0 .0979-.1122.113-.1645.0189-.2065.0618-.2711.0429-.4775-.0054.1229-.1349.3059-.201.3204zm-4.9909 5.3173c-.3573-.127-.729-.2099-1.1066-.2467-2.6715.0634-5.2849.7883-7.6031 2.1089 0 0-.0978.0898-.0828.1272.0151.0374.0527.1421.0753.2094.0171-.0254.0404-.046.0678-.0599 2.3085-1.3175 4.9113-2.0424 7.5729-2.1089.3582.0315.7103.112 1.0464.2393h.0526v-.2693h-.0526zm.0602 5.2351v.0523h-.1129c-1.375-.0695-2.7519.0923-4.0726.4787-1.3987.4205-2.7409 1.0082-3.9972 1.75-.0903.0523-.0828.0448 0 .1271.0225.0256.0427.0531.0602.0823 1.2491-.7256 2.5809-1.3005 3.9672-1.7126 1.3127-.3731 2.6791-.5248 4.0424-.4488h.0828zm13.9786 11.9882c-.56.3887-1.161.7171-1.791.9797l.09.1571c.597-.2459 1.167-.5516 1.701-.9124h.061c.896-.2244 4.516-1.4957 6.722-1.5406 1.364-.0307 2.713.2915 3.914.9348.618.3594 1.175.8137 1.649 1.3462.019.0355.052.0623.09.0748.036.0002.068-.0203.083-.0524.143-.3721.209-.7687.196-1.1667-.009.3232-.075.6423-.196.9423-.015.0322-.047.0527-.083.0524-.06 0-.067-.0748-.09-.0972-.476-.5229-1.032-.9672-1.649-1.3163-1.197-.6557-2.546-.9907-3.914-.9722-2.213 0-5.796 1.3312-6.692 1.5556h-.083zm9.41 6.4466c-.082.0527-.181.0739-.278.0598-.285-.3559-.608-.6795-.964-.9647-.436-.3626-.952-.6187-1.505-.7479-.853-.1718-1.729-.1946-2.59-.0673-1.666.2243-3.272.7705-4.727 1.6079-.076.0524-.113.0748-.083.1122.03.0281.055.0609.075.0972 1.455-.8215 3.054-1.3596 4.712-1.5854.862-.1361 1.742-.1184 2.598.0523.554.127 1.07.3834 1.505.7479.357.2863.685.6069.979.9572.099.014.2-.0072.286-.0598.088-.1926.134-.4016.135-.6132-.008.1407-.052.2772-.128.3963zm-3.553 6.2522c-.038 0-.12 0-.15 0-.242-.2468-.515-.4606-.813-.6357-.766-.372-1.625-.5099-2.47-.3964-1.239.1947-2.405.7106-3.38 1.4957-.06.0449-.09.1197-.06.1421l.083.0673c.979-.7783 2.143-1.2934 3.38-1.4957.844-.1112 1.703.0266 2.469.3964.3.176.573.3924.813.6431.048.0228.103.0228.151 0 .207-.191.31-.4687.278-.7478-.018.2265-.126.4365-.301.5833z" fill="#432918" fill-rule="evenodd"/><path clip-rule="evenodd" d="m121.743 24.2329s-.286 17.328-.504 25.9209c-.055 2.5298-.518 5.0344-1.37 7.4188-.985 2.7101-2.297 5.2916-3.907 7.6881-1.677 2.4734-3.706 4.6926-6.022 6.5887-.912.7599-1.872 1.4594-2.876 2.094-1.573.9453-3.217 1.7703-4.916 2.4679-.093.0399-.184.0794-.273.1181l-.002.0006c-.447.1937-.854.37-1.23.4946-.465.1738-.9402.3187-1.423.4337-.4807-.1139-.9535-.2588-1.4153-.4337-.3258-.1079-.6673-.2548-1.0472-.4181-.1466-.063-.2989-.1285-.4583-.1952-1.6961-.6991-3.3367-1.5241-4.9081-2.4679-1.005-.6327-1.9658-1.3323-2.8756-2.094-2.3188-1.8941-4.3475-4.1136-6.0223-6.5887-1.6124-2.3963-2.9268-4.9778-3.9144-7.6881-.8614-2.3833-1.3365-4.8874-1.4077-7.4188-.2183-8.5929-.5044-25.9284-.5044-25.9284l.1431-.0523c2.3371-.9294 4.7337-1.7039 7.1739-2.3184 3.365-.8073 6.7878-1.3549 10.2378-1.6378 1.6862-.1496 3.2144-.2169 4.9157-.2169h.1129c1.7009 0 3.2289.0673 4.9229.2169 3.45.2835 6.873.8311 10.238 1.6378 2.438.6145 4.832 1.389 7.166 2.3184l.136.0598zm-14.649 30.3707-.203.0523c.711-1.1648 1.115-2.51 1.144-3.9112v-.4189h12.323c-.076 2.3762-.517 4.7269-1.31 6.9701-.946 2.6346-2.21 5.1457-3.764 7.4787-1.617 2.4006-3.577 4.5546-5.819 6.3942-.875.735-1.798 1.412-2.762 2.0267-1.512.9128-3.09 1.7128-4.72 2.3932-.13.0556-.254.1095-.373.1615-.377.1646-.71.3099-1.065.4293-.11.0369-.216.0731-.318.1077l-.001.0003c-.3295.1124-.6126.2088-.8254.2659v-17.7393c.1136-.0034.2271-.0162.3414-.0291h.0001.0001.0001c.1357-.0153.2727-.0307.4107-.0307.007.0174.016.048.027.087.013.0445.029.1.049.1598.11.2009.302.3452.527.3963.28.0629.572-.0387.752-.2617.247.2442.613.3256.941.2094.25-.0667.425-.2893.429-.546.015-.1688-.014-.3384-.082-.4936l-.083-.1645c.638-.2739 1.244-.6176 1.807-1.0246l.022-.0149h.023c.196-.0492.521-.1509.933-.2797h.001c1.466-.4587 4.032-1.2609 5.796-1.2609 1.377-.0106 2.732.3403 3.929 1.0171.619.3547 1.176.8068 1.649 1.3387.015.0356.045.0628.082.0747.036.0003.068-.0202.083-.0523.158-.3914.225-.8133.196-1.234-.045-.5775-.534-1.015-.805-1.2576l-.001-.0002v-.0004c-.048-.043-.089-.0799-.12-.1104-.008-.0074-.023-.0448.045-.0972.08-.0736.166-.1411.256-.2019.387-.3058.861-.4836 1.355-.5086.029.0047.021-.035.012-.0855-.006-.0299-.012-.0634-.012-.094-.143-.5982-1.001-.9871-1.904-.8525-.618.1181-1.161.4796-1.506 1.0021h-.135c-.291-.1029-.588-.1878-.889-.2543-.113-.0299-.045-.1196-.045-.1196.185-.323.443-.5994.753-.8077.347-.2712.755-.4558 1.189-.5385v-.0897c-.167-.3757-.501-.6523-.903-.7479-.643-.207-1.348-.0837-1.882.3291-.506.4245-.877.9856-1.069 1.6154-.03.0748-.045.0748-.09.0748-.15-.0336-.47-.0395-.681-.0434-.117-.0021-.2-.0036-.2-.009v-.1047c.103-.342.286-.6548.534-.9124.226-.3024.531-.5377.881-.6805l.045-.0449c.05-.0496.05-.1299 0-.1795-.546-.3347-1.22-.3902-1.814-.1496-.448.1155-.844.3793-1.121.7479-.35.5065-.605 1.0714-.753 1.6677-.008.0225-.045.0898-.091.0898zm-2.552 2.4979h-.03s.497-.5086 2.379-2.4455v-.0001c-.587.9617-1.383 1.8003-2.349 2.4456zm6.993 3.0363c.236-.4482.622-.8001 1.092-.9946l-.03-.03c.737-.2799 1.569.0233 1.95.7105.045.0748.015.1271-.046.1271-.513.1192-.982.3782-1.355.7479-.09.0748-.128.1421-.128.187v.0448c.413.395.73.8785.926 1.4135.17.3941.17.8399 0 1.234-.082.06-.186.0818-.286.0598-.291-.3521-.619-.673-.978-.9573-.435-.3645-.951-.6208-1.506-.7478-.853-.1669-1.73-.1846-2.589-.0524-1.657.2242-3.254.7625-4.705 1.5855-.083.0524-.083.1122-.083.1122.171.1645.266.3917.263.6282.054.4031-.146.798-.504.9947-.34.1863-.752.1863-1.092 0-.137-.0994-.255-.2237-.346-.3665-.015-.0449-.06-.0449-.06-.0449-.237.2098-.55.3127-.866.2842-.331-.0373-.63-.2144-.82-.4861-.243-.3037-.293-.7176-.128-1.0694l.025-.0382c.142-.2114.159-.2376.359-.3507.045-.015 0-.0599 0-.0599-.348-.2472-.474-.703-.301-1.0918.288-.5885.992-.846 1.595-.5834.32.1882.55.4951.64.8526l.858-.4263c.038-.015.038-.0748.038-.0748-.122-.4633-.156-.9454-.098-1.4209.083-.6751.486-1.2702 1.084-1.6005.474-.2691 1.028-.3669 1.566-.2767.028.0045.053.0209.068.0449.016.0156.026.0372.026.0598 0 .0227-.01.0443-.026.0599-.212.1771-.39.3898-.527.6282-.318.5225-.443 1.1385-.354 1.7425.003.0274.025.0491.053.0523.263-.0881.532-.1581.805-.2094.041-.0125.074-.0427.091-.0822.046-.635.185-1.2598.414-1.8547.222-.3973.561-.7181.971-.9199.614-.4106 1.395-.4865 2.077-.2019.03.0149.023.1421-.067.2019-.561.3334-1.017.815-1.318 1.391-.155.3013-.24.6337-.248.9723v.0822c.227-.0013.453-.0213.677-.0598.038 0 .083-.0224.083-.0823.068-.6635.354-1.2863.813-1.7724.397-.3953.945-.6024 1.506-.5684.435.0121.845.2112 1.121.546 0 .0523-.045.0523-.045.0523-.413.161-.782.4173-1.076.7479-.216.2071-.376.4641-.467.7478 0 .0032-.007.0094-.015.0173-.033.0295-.091.0831.075.0949.087.0062.2.0224.319.0395.17.0243.351.0503.479.0503.038.0299.09-.0898.09-.0898zm-18.9997-4.3525h-13.678c-.4714-1.7087-.7466-3.4649-.8205-5.2351h12.4811v.2094c.0233 1.8655.7421 3.6562 2.0174 5.0257zm6.105 12.4893h-12.7972c.9496 1.032 1.9709 1.9966 3.0563 2.8867.8946.7372 1.8376 1.4143 2.8229 2.0267 1.5114.9128 3.0891 1.7128 4.7199 2.3932.1266.0541.2491.1075.3679.1592l.0004.0002c.3899.1697.7408.3225 1.0695.4314l.8206.2767v-8.1741zm-17.0052-5.9231h17.0052l.0226 5.25h-13.3994c-.7837-.8972-1.5079-1.844-2.168-2.8344-.527-.8002-1.0088-1.6004-1.4604-2.4156zm17.0052-3.5673c-1.9153-.1684-3.7331-.9147-5.2092-2.1389l-.271-.2393h-14.1221c.0903.3066.1957.6132.3011.9124.5351 1.5026 1.1792 2.9648 1.9271 4.375h17.3967zm-4.2532-31.515c1.468-.1271 2.8079-.2019 4.2532-.2019l.1054 11.0385h-7.1062c-.1185-.0066-.0816-.0417-.0251-.0954l.0112-.0107.0139-.0136c.508-.3795 1.0984-.6356 1.7239-.7479.0602-.0074.0752-.0374 0-.1346-.5908-.5889-1.4715-.7843-2.2584-.501-.6995.2196-1.256.7505-1.5055 1.4359-.013.0432-.0524.0734-.0979.0747-.3463.0374-.7829.0374-1.1367.0374-.0828 0-.0828-.0822-.0828-.1346.1012-.4842.4014-.9045.8281-1.1592.374-.2437.8037-.3903 1.2496-.4263.0363-.0376.0363-.097 0-.1346-.0741-.0865-.1603-.1621-.256-.2243-.3728-.1996-.8034-.2656-1.2195-.187-1.2132.1325-2.1609 1.1022-2.2583 2.3109-.005.0318-.0071.0579-.0088.0799-.006.0767-.0081.1038-.1192.1445-.1856.0567-.4465.1015-.6817.1419h-.0001-.0001-.0001c-.1367.0235-.2648.0455-.3643.0675-.0452.0074-.1054-.1047-.1054-.1496.0987-.4549.2994-.8818.5871-1.2489.2161-.2914.4969-.5294.8206-.6956.0677-.0373.1204-.1047.0677-.157-.6097-.5235-1.8593.0299-2.3637.5833-.4747.6239-.7096 1.3957-.6624 2.1763v.1122c-.3087.1271-.6324.2468-.9636.3515v-.0898c-.0953-.566.0313-1.1467.3538-1.6228.1418-.2396.3442-.4381.5872-.5759.0097-.0085.0153-.0207.0153-.0336s-.0056-.0252-.0153-.0337c-.2786-.359-1.3701-.0972-1.7088.2244-.7528.7478-.7528 1.4733-.7528 2.625 0 .0598-.0678.2991-.128.2991-.1583.0902-.3317.151-.5119.1795-.0338 0-.0508.0112-.0593.0168-.0033.0022-.0053.0036-.0065.003-.0019-.0008-.0019-.0061-.0019-.0198-.0224-.0705-.0527-.1382-.0904-.2019-.2643-.4435-.8402-.5907-1.2872-.3291l-.0903.0673c-.173.1476-.2798.3575-.2967.5834-.017.2259.0573.4493.2063.6207.0452.0374.0527.0972 0 .0972-.255.0836-.4659.2648-.5861.5035-.1201.2386-.1394.515-.0537.7679.1198.2911.3989.4866.7151.5011.3156.0098.6264-.0791.8883-.2543.0185-.0197.0444-.0309.0715-.0309s.053.0112.0715.0309c.1291.209.3369.3582.5772.4144.2402.0561.4932.0146.7025-.1153.3915-.2542.5646-.6581.271-1.3387-.015-.0373.0904-.1346.0904-.1346 2.3068-1.3047 4.904-2.0191 7.5579-2.079.3752.0368.7443.1197 1.099.2468h.0527v2.2436l-.0753.0598c-.4972.299-.8688.7664-1.0463 1.3162-.0076.0524-.0151.0524-.0828.0524-.1433.016-.2887.0364-.435.0568h-.0001-.0001-.0001c-.33.0461-.6642.0927-.9875.0927-.0677.0075-.0677-.0673-.0677-.0673.3352-.8909.9468-1.653 1.7464-2.1762.0339-.047.0339-.1102 0-.1571-.1114-.1115-.2524-.1893-.4065-.2243-.8149-.0625-1.612.2587-2.1529.8675-.4815.5937-.7468 1.3316-.7528 2.094-.0219.0254-.0208.0614-.0199.0916.001.0322.0018.058-.0253.058-.1895.0611-.3909.1164-.5911.1713-.1179.0324-.2354.0646-.3499.0979-.0211.0044-.0431-.0005-.0604-.0134s-.0282-.0325-.0299-.0539c-.158-.9826.3047-1.9614 1.1668-2.468.128-.0897-.0903-.2393-.2409-.2393-.9226-.0509-1.7871.4491-2.1981 1.2714-.2239.6073-.2502 1.2691-.0753 1.8921 0 .0205.0071.0463.014.0714.0132.0479.0256.0931-.014.0931-.1087.0295-.3765.1266-.5624.1941h-.0001l-.0001.0001c-.0972.0353-.1721.0624-.1901.0676-.0527.0149-.113-.0075-.113-.0748-.1112-.3791-.1293-.7792-.0526-1.1667.1071-.4437.3305-.8513.6473-1.1816v-.0898c-.2865-.1278-.6098-.149-.9108-.0598-.4979.126-.9173.4583-1.1518.9124-.3839.7105-.3011 1.3985.1205 2.3707 0 .014.0044.0353.009.0579.0104.05.0221.1067-.009.1067l-.3312.1944c-.0377.0673-.1054 0-.1054 0-.021-.0306-.043-.0643-.066-.0995-.1175-.1798-.2621-.4013-.4384-.4763-.3331-.1615-.7284-.13-1.0313.0822-.2928.2573-.405.6621-.2861 1.0321.0478.1292.111.2522.1882.3664.0166.0083.0343.0108.0485.0129.0372.0054.0497.0072-.0485.0993-.0646.0606-.1429.1127-.2193.1636-.084.0559-.1657.1103-.2248.1729-.2522.3348-.2522.7946 0 1.1293.2421.3458.6993.4688 1.084.2917.1932-.0823.3795-.1798.5571-.2917l.018-.0182c.0528-.0539.1002-.1021.1476-.0416.1473.1648.3335.2908.542.3664.2919.0762.6027.0216.8506-.1495.3054-.1492.4721-.4834.4065-.8152-.0744-.2338-.1918-.4519-.3463-.6432l-.0204-.022c-.0268-.0286-.0403-.0431-.0388-.0558.0016-.0129.019-.0239.0542-.0462l.005-.0031c1.2595-.735 2.6043-1.3151 4.0048-1.7276 1.3187-.3972 2.6962-.5667 4.0725-.501h.1129v4.6517h-12.5186c-.128-5.1079-.2786-13.1923-.3764-18.7639 2.2471-.8954 4.5504-1.6449 6.8954-2.2436 3.2364-.7783 6.5282-1.3084 9.8463-1.5855zm26.1359 16.984h.008l-.007-.0075zm-12.473 0h12.473c-.037 1.979-.075 3.8311-.12 5.4145h-12.353zm12.594-5.3697h-.008l.001-.0074zm-.008 0h-12.571v4.6069h12.489c0-1.0438.025-2.124.051-3.2076v-.0029-.0003-.0003-.0003-.0004c.011-.4652.022-.9312.031-1.3951zm-21.2053-5.9829h21.3113c-.009.4877-.021.9902-.033 1.5042v.0001.0001.0001.0002c-.028 1.1962-.057 2.4541-.057 3.7304h-21.2213zm21.3183-1.7425c-2.243-.9044-4.547-1.654-6.895-2.2436-3.234-.8024-6.526-1.3525-9.846-1.6453-1.581-.1346-3.011-.1869-4.5773-.2094v5.1304h21.3263v-1.077zm.097-6.1516.009.0042-.008-.0748zm-.127-.0631.127.0631c-.005.4018-.035 2.4862-.089 5.3813h-.045c-2.247-.8976-4.55-1.6471-6.896-2.2436-3.234-.7777-6.523-1.3078-9.838-1.5854-1.626-.1421-3.087-.2543-4.7279-.2543h-.1054c-1.6335.0224-3.109.1122-4.735.2543-3.3191.2894-6.6109.832-9.8463 1.6228-2.345.5987-4.6483 1.3482-6.8955 2.2436h-.0451c-.0527-3.2158-.0904-5.4594-.0904-5.4594l.1355-.0598c2.2472-.8954 4.5505-1.6449 6.8955-2.2436 3.2364-.7783 6.5282-1.3084 9.8463-1.5855 1.626-.1421 3.0939-.2094 4.7275-.2094h.1355c1.6413.015 3.1093.0673 4.7353.2094 3.309.2905 6.59.8331 9.816 1.6229 2.345.5965 4.649 1.346 6.895 2.2436zm-11.404 41.3718c-.35.2444-.635.5705-.828.9498 0 0 0 .0897-.068.0747l-.512-.157v-.0673c.342-.6638.948-1.1548 1.671-1.3537.025 0 .017-.0199.009-.0398-.005-.01-.009-.02-.009-.0275-.263-.6431-1.596-.5833-2.258-.172-.603.3954-1.028 1.006-1.19 1.7052v.0972c-.181.0597-.368.1048-.557.1346-.03-.0038-.053-.0295-.052-.0598-.049-.3212.009-.6494.165-.9349.206-.3584.459-.6878.753-.9797.02-.0197.032-.0466.032-.0748 0-.0281-.012-.055-.032-.0747-.381-.2239-.854-.2239-1.234 0-.541.2836-.951.763-1.145 1.3386-.12.4484-.12.9203 0 1.3686v.0673c-.094.0374-.177.0767-.259.116-.083.0392-.166.0785-.26.1159h-.06c-.312-.5883-.196-1.3105.286-1.7725 0-.0124.006-.0257.013-.039.014-.0266.027-.0532-.013-.0731-.479-.0745-.962.1007-1.28.4636-.369.4394-.475 1.0403-.278 1.578.043.218.122.4276.233.6208 0 0 .075.0523 0 .0673l-.361.2767h-.046c-.147-.2747-.399-.4794-.7-.5684-.27-.0611-.553.0177-.752.2094-.341.3387-.341.8877 0 1.2265.103.0972.226.1711.361.2169 0 0 .045 0 0 .0448-.193.1299-.35.3045-.459.5086-.134.3354-.054.7173.203.9722.192.1664.447.2427.7.2094.379-.1185.69-.3899.858-.7478h.075c.157.2234.381.3912.64.4786.261.0886.55.0283.753-.1571.324-.2231.449-.6392.301-1.0021-.119-.2085-.287-.3855-.489-.516 0 0 0-.0823.06-.1272.974-.7869 2.14-1.3031 3.38-1.4957.842-.1106 1.698.0272 2.462.3964.303.1733.58.39.82.6431 0 0 .121.0449.151 0 .378-.3425.415-.9218.083-1.3087-.138-.164-.307-.2988-.497-.3964.16-.3763.42-.7021.752-.9423.225-.1414.465-.2568.716-.344.045 0 .045-.0449 0-.1047-.309-.703-1.506-.7479-2.108-.359zm-13.3546-35.0973c-.2003-.5403-.6951-.9184-1.2721-.9722v-.0224c-.5669-.0689-1.1418.0164-1.6637.2468-.5456.2891-.9738.7568-1.212 1.3237-.0148.0321-.0472.0526-.0828.0524h-1.4302c-.0302 0-.0828-.0374-.0828-.0374.053-.4454.2391-.8648.5344-1.2041.4781-.4124 1.0332-.7275 1.6336-.9273.0677-.015.0677-.1197.0677-.1197-.1235-.1749-.2891-.3164-.4818-.4113-.8623-.2241-1.7803-.057-2.5067.4562-.6851.4562-1.0991 1.8547-1.1819 2.3557-.0069.0451-.0445.0793-.0903.0823-.5495.0748-1.0991.172-1.6335.2991v-.0374c.0437-.5272.2636-1.0247.6248-1.4134.3673-.351.7653-.6689 1.1893-.9498.0603-.0224.0377-.1197 0-.1197-.6134-.258-1.306-.258-1.9195 0-.8476.3658-1.4491 1.1354-1.5959 2.0417-.06.3255-.0827.6566-.0678.9872 0 .0523-.1129.0523-.1129.0523-.5947.187-1.2195.3964-1.7088.5609h-.0979c.0069-.5399.1688-1.0666.4668-1.5181.1757-.2848.4479-.4935.7226-.7039.1725-.1321.3459-.265.4969-.4179 0-.0091.0041-.0236.0086-.0395.0104-.0366.0229-.0802-.0086-.0802-.9862-.3963-1.9196.0075-2.71.8975-.5352.79-.7076 1.7686-.4743 2.6923.0151.0822-.0452.1944-.0452.1944-.1811.0832-.3671.1557-.557.2169-.016.0045-.0332.0022-.0474-.0063-.0143-.0085-.0244-.0224-.0279-.0386-.2258-.7179-1.0614-.5758-1.4378-.359-.4144.2324-.5623.7535-.3312 1.1667h-.0452c.0287.0291.0287.0756 0 .1047-.2528.1236-.4453.3427-.5344.6083s-.0674.5556.0602.8052c.2159.3461.6528.4855 1.0313.329.2106-.0765.4104-.1796.5947-.3066.0213-.0107.0464-.0107.0677 0 .0081.0202.021.0382.0377.0524.3308.4004.9236.4636 1.3324.142.0391-.0291.0747-.0546.1075-.0781.194-.1391.2852-.2044.3818-.5052.0381-.2688-.0413-.541-.2183-.7478-.0602-.0225 0-.1047 0-.1047 3.1341-1.6033 6.5931-2.4803 10.1173-2.5652.5945.0017 1.1837.1106 1.7389.3216.643.2164 1.2365.5569 1.7465 1.0021.0355.0471.0913.0748.1505.0748.0607-.0277.107-.0792.128-.1421.1627-.5871-.0275-1.215-.4893-1.6154-.4054-.4206-.9309-.7077-1.5056-.8226-.0129-.0114-.0204-.0277-.0204-.0449s.0075-.0335.0204-.0449c.2303-.2265.5043-.4046.8055-.5235.4804-.0773.9662-.1173 1.4529-.1196.0376 0 .0752-.0674.0752-.0674z" fill="url(#b)" fill-rule="evenodd"/><g fill="#000"><path clip-rule="evenodd" d="m106.966 52.9472c-.64 1.7487-1.87 3.2191-3.478 4.1577-1.269.7546-2.716 1.1599-4.1927 1.175-2.0017-.0143-3.9342-.7344-5.4576-2.0337-1.6556-1.3854-2.628-3.422-2.6648-5.5812v-11.9232c0-.0452.0376-.0452.0376-.0452h16.0945v12.4052c-.01.6297-.124 1.2534-.339 1.8454zm-15.4017-2.3877c.0292 2.071.9547 4.0274 2.5369 5.3629 1.4394 1.2615 3.2807 1.9691 5.1941 1.996 1.4107-.0172 2.7907-.4125 3.9977-1.1449 1.549-.9156 2.727-2.3474 3.327-4.0447.205-.568.314-1.1662.324-1.7701v-11.9081c-.015-.0068-.031-.0068-.046 0h-15.2961c-.0376 0-.0376.0452-.0376.0452z" fill-rule="evenodd"/><path d="m113.184 59.2554c-.325.0248-.632.1624-.866.3888-.243.1908-.45.4239-.609.6881 0 .0448-.113.1869-.219.1645-.363-.0599-.73-.0973-1.099-.1122 0 0-.218-.0523-.173-.2468.034-.3467.167-.6765.384-.9498.282-.3586.649-.6414 1.069-.8226.151-.0748-.527-.2767-.753-.2618-.344.0145-.675.1406-.941.359-.549.3665-.752 1.3387-.888 1.8547-.021.0729-.074.1329-.143.1645-.44.1138-.893.1716-1.347.1721-.082-.5583.013-1.1278.271-1.6304.207-.3347.469-.633.775-.8825.113-.0913.231-.1762.354-.2542.098-.0673-.211-.1571-.422-.1421-.573.0652-1.095.3596-1.445.8151-.449.6813-.68 1.4818-.663 2.296 0 0 0 .0972-.09.1346s-.572.1047-.828.1944c-.256.0898-.512.2394-.595.1945s-.09-.2019-.113-.3291c-.048-.2921-.048-.5903 0-.8825.099-.5206.336-1.0058.685-1.4059.106-.0898-.903-.1646-1.43.7478-.232.3509-.37.7553-.399 1.1742-.006.3785.052.7553.173 1.1143 0 .1047-.052.1271-.052.1271l-.181.0973c-.339.1944-.843.4188-1.129.5608-.121-.3365-.136-.5683-.467-.8002-.275-.1637-.61-.1939-.911-.0822-.27.1204-.443.3867-.444.6805.031.2962.184.5667.422.7479l-.241.2094c-.279.2306-.329.6373-.113.9273l.045.0674c.257.3067.71.3593 1.031.1196.16-.0862.283-.227.347-.3964.06.1646.195.6582.685.7479.205.0631.427.0271.602-.0972.288-.2121.386-.5972.233-.9199-.073-.1858-.198-.3468-.361-.4637 1.007-.611 2.087-1.0958 3.214-1.4433 1.021-.3064 2.081-.4651 3.147-.4712.878-.0304 1.749.1654 2.529.5684.568.3638 1.076.8128 1.506 1.3312.098-.0449.06-.3216.06-.3814-.116-.7828-.521-1.4945-1.137-1.9968-.098-.0898-.037-.1197 0-.1496.378-.4814.909-.8215 1.506-.9648.045-.0673-.294-.5608-.979-.5608z"/><path d="m116.722 53.609h-.075c-.385-.0076-.765.0964-1.092.2991-.3.1953-.556.4499-.752.7479-.05.0688-.139.0964-.219.0673-.353-.1496-1.069-.3141-1.505-.4338-.032-.0227-.051-.0585-.053-.0972.152-.3623.369-.6942.64-.9797.881-.8899 1.445-.6132 1.347-.7479-.478-.5514-1.301-.6488-1.897-.2243-.57.4206-.991 1.0096-1.204 1.6827-.031.0599-.066.1174-.105.172-.039.0392-.089.0653-.143.0748-.279 0-.565 0-.844 0h-.489c-.241 0-.09-.6955.301-1.3013.241-.3592.6-.6236 1.016-.7479.113-.0523-.158-.2767-.82-.2318-.575.0646-1.088.387-1.393.875-.385.4142-.632.9366-.707 1.4957-.027.1588-.145.2874-.301.3291l-1.506.3216-.346.0822-.196.2618c-.279.3411-.581.6634-.903.9647l-.294.2543.452-.1346c.753-.2319 1.566-.4712 1.791-.531 1.277-.37 2.6-.5637 3.93-.5759.593.0084 1.185.0659 1.769.172.765.1329 1.494.4178 2.145.8377.405.2613.79.5512 1.152.8675.095.0983.204.1816.324.2468.113 0 .098-.0599.113-.1795.113-.6928-.225-1.3814-.843-1.7201 0 0-.211-.172-.158-.2692.364-.4493.871-.763 1.437-.89.106 0 .324 0 .286-.0823-.037-.0822-.037-.501-.858-.6057z"/><path d="m89.9458 43.2586c-.1258.1911-.2269.3971-.3012.6132 0 0-.5043 0-1.0162.0598-.5119.0599-1.1668.172-1.1668.172v-.0523c-.0006-.3829.0924-.7601.271-1.0994.3677-.5677.8253-1.0728 1.355-1.4957l.0753-.0523c.0978-.0674.0978-.0674.0978-.1122-.123-.0435-.2537-.0614-.3839-.0524-.6263.0919-1.1884.4318-1.5582.9423-.4658.5987-.6936 1.3467-.6399 2.1015-.1581.0524-1.4303.4637-1.6561.5161-.3254-1.1103.11-2.3022 1.0765-2.9466-.7688-.0023-1.4745.4218-1.8293 1.0993-.2326.7158-.2113 1.4892.0602 2.1913-.4065.1271-1.5055.5609-1.5055.5609-.2024-.4023-.2785-.8556-.2183-1.3013.0131-.5915.2527-1.1558.6699-1.578-.5118-.2468-1.5055.4338-1.6937 1.4359-.0326.6676.1239 1.3308.4517 1.9145-.2786.202-.7528.5161-.9184.6282-.0452-.0523-.1957-.5833-.4818-.7478-.2259-.1576-.5269-.1576-.7528 0-.2111.1966-.2902.496-.2032.7703.0752.2019.3538.4337.3839.5758-.13.105-.2714.1953-.4216.2693-.2017.0993-.3481.2831-.3989.501-.0369.1765.0072.3602.1204.5011.1247.1526.3142.2384.5119.2318.1451-.0035.2872-.042.414-.1121.143-.0823.5721-.4862.6173-.5161.1581.172.2936.6133.7979.5983.5044-.0149.8432-.4113.7152-.8376-.1148-.2755-.3223-.5029-.5872-.6432.7373-.4609 1.5071-.8683 2.3035-1.219 1.7887-.8009 3.7098-1.2698 5.6684-1.3835.2183 0 .4893 0 .7076.0449v-2.1689c-.2183.1662-.4088.3656-.5645.5909z"/><path d="m110.098 67.2724c.268-.3016.618-.5198 1.008-.6282.053 0-.173-.2019-.173-.2019-.179-.1341-.4-.2028-.625-.1944-.367.0086-.719.1464-.993.3889-.286.2735-.525.5918-.708.9423-.019.0075-.041.0075-.06 0-.318-.1096-.646-.1897-.979-.2393 0 0 0-.0449 0-.0674.044-.3302.185-.64.407-.8899.233-.2804.523-.5096.85-.6731.279-.1196.437-.0449.399-.0972-.037-.0524-.143-.2767-.715-.2543-.443.0429-.863.2175-1.204.5011-.457.41-.769.9556-.888 1.5555-.014.0272-.035.0504-.061.0673-.331.0674-.647.1496-.971.2319h-.052c-.098-.4178-.069-.8548.082-1.2564.18-.3962.46-.739.813-.9947 0-.1122-.331-.1271-.361-.1271-.519.0832-.969.4009-1.219.86-.336.5808-.417 1.2725-.226 1.9146.004.0146.004.0302 0 .0448-.291.1195-.575.2543-.851.4039 0 0-.045 0-.083 0-.172-.2956-.277-.6248-.308-.9648-.058-.3448.051-.6964.293-.9498-.497.0369-.909.3973-1.009.8825-.058.386-.014.7804.128 1.1443.062.1729.137.3405.226.501v.0524c0 .0074-.579.4412-.677.531-.098.0897-.06 0-.075 0-.016 0-.279-.374-.279-.374-.099-.1355-.249-.226-.416-.2513s-.337.0167-.472.1167c-.225.2317-.225.5984 0 .8301.143.1197.497.3441.527.3665-.147.1068-.285.2243-.414.3515-.198.2659-.148.6397.113.8451.24.1632.566.1179.752-.1047.128-.1421.294-.5385.452-.5908.158-.0524.135.2243.67.5683.2.1113.451.0745.61-.0897.188-.2094.165-.6806-.542-.9947-.061 0-.188-.0748-.113-.1495.173-.1616.356-.3115.549-.4488l.264-.2019c.587-.4417 1.243-.7852 1.942-1.0171.537-.1778 1.098-.2711 1.664-.2767.611.0076 1.216.1268 1.784.3515.41.1392.767.4002 1.023.7479.204.2468.347-.0823.309-.3216s-.105-.5459-.753-.9423c-.113-.0748-.128-.1197-.098-.2244.031-.1047.068-.2169.46-.6731z"/><path d="m91.9257 36.7148c-.3062-.0023-.6093.0615-.8883.1869-.577.3243-1.0018.8619-1.1819 1.4958l-.956.0373-.9861.0674c.0061-.1669.0313-.3325.0753-.4936.0872-.3334.2494-.6428.4742-.905.3884-.4462.9204-.7448 1.5056-.845h.1355c-.1906-.1287-.4172-.1941-.6474-.187-1.2768.007-2.3376.9798-2.4466 2.2436l-.0451.2692-.7528.1496c-.4029.0723-.8003.1723-1.1894.2991.022-.4755.1425-.9414.3538-1.3686.2051-.401.4923-.7551.8431-1.0395.0904-.0673.1807-.1421.2786-.2019-.1223-.0356-.2491-.0533-.3764-.0524-.7424.0064-1.4052.4632-1.6712 1.1518-.221.5979-.3207 1.2333-.2936 1.8696-.3688.0898-1.212.4113-1.5582.546-.1053-.4553-.1053-.9283 0-1.3836.0879-.3938.2832-.7561.5646-1.047.0803-.0798.1631-.1546.2484-.2244 0 0-.0904-.0523-.4366 0-.6144.1562-1.1006.6222-1.2798 1.2265-.1353.6263-.1884 1.2673-.158 1.9071-.2108.1047-.8883.4113-1.0163.4562-.0309-.169-.0921-.3311-.1807-.4787-.1154-.1777-.314-.2848-.5269-.2841-.1231.0041-.2438.0347-.3538.0897-.1089.0556-.1904.1528-.2258.2692-.048.1511-.0345.3149.0376.4562.0489.088.107.1707.1731.2468.0527.0599.1581.2094.1581.2094-.2241.0608-.4339.165-.6173.3067-.2775.1866-.3685.5513-.2107.845.097.1907.297.3075.5118.2992.3501-.0016.6844-.1447.926-.3964l.2785.4113c.1098.1649.298.2612.4968.2543.1071-.0028.2123-.0283.3087-.0748.2116-.1284.3379-.3595.3312-.6057-.0135-.2125-.1014-.4136-.2484-.5684l-.0527-.0748.4968-.2618c.7908-.4402 1.6166-.8154 2.4691-1.1218 1.3702-.4784 2.7888-.8069 4.2306-.9797.2965-.0437.5963-.0612.8958-.0523.3717.0234.7374.1042 1.084.2393v-1.4957h.5947c.3907-.4534.9191-.7684 1.5056-.8974l.4065-.1197c-.0615-.0557-.1297-.1034-.2033-.1421-.2684-.1517-.5719-.2316-.8807-.2318z"/><path d="m100.974 59.0085c.188 0 .324-.0972.459-.4038 0 0 .098-.0598.113 0 .151.2393.482.4487.708.3291.084-.0511.145-.1336.167-.2292.023-.0957.006-.1963-.047-.2794l-.113-.1944c-.539.2062-1.1.3541-1.671.4412l.053.1346c.051.1348.187.2179.331.2019z"/><path d="m94.485 31.0459c.3569-.046.7167-.066 1.0765-.0598-.1276-.3004-.4246-.4951-.7528-.4936-.4121-.0606-.8329-.0221-1.227.1122-.7032.3091-1.2607.8736-1.5582 1.578-.7271-.0411-1.456-.0411-2.1831 0 .0754-.5838.2924-1.1408.6323-1.6229.398-.4555.9213-.7856 1.5056-.9498.0882-.0276.1719-.0679.2484-.1196-.128-.1197-.2936-.2393-.9033-.2618-.7935.0086-1.5304.4098-1.9648 1.0695-.3602.5757-.5722 1.2306-.6173 1.907-1.1668.2094-2.5067.5535-2.5067.5535.014-.4725.1135-.9386.2936-1.3761.2783-.5476.7061-1.0063 1.2345-1.3237.0861-.0526.169-.1101.2485-.172-.1599-.0637-.3333-.0868-.5044-.0673-.3893.0091-.7709.109-1.1141.2916-.7139.4023-1.1584 1.1516-1.1668 1.9669v1.047c-.8979.2255-1.7825.5001-2.6498.8227-.0818-.5957.0069-1.2022.2559-1.75.2324-.5136.6088-.9498 1.084-1.2565.2334-.142.2409-.2019.2409-.2168 0-.015-.0451-.0449-.3538-.0449-.4607.0432-.8969.2259-1.2496.5235-.4292.3731-.7359.8654-.8807 1.4135-.1168.6329-.1168 1.2816 0 1.9145 0 0-.7528.3664-1.0539.516-.0622-.2094-.1644-.4049-.3011-.5758-.2399-.2154-.5914-.2545-.8733-.0973-.2464.1117-.3923.3684-.3613.6357.028.2029.1113.3943.2409.5534-.2133.0717-.4067.1921-.5646.3515-.1942.1972-.2737.4792-.2108.7479.0981.2466.3529.3947.6173.359.3267-.0722.6282-.2297.8732-.4562.113.1271.2334.2468.3538.3664.1303.0971.2888.1496.4517.1496.1308-.0002.2597-.031.3764-.0897.2296-.1297.3597-.3824.3312-.6432 0-.3665-.3914-.5085-.3688-.6432 1.7723-.987 3.6753-1.7221 5.6533-2.1837 1.3533-.3396 2.7382-.5401 4.1328-.5983.877-.0974 1.7649-.0082 2.6046.2617.6973.179 1.3373.5317 1.8593 1.0246-.009-.6379-.3787-1.2163-.956-1.4957-.4556-.2828-.9709-.4568-1.5055-.5086.1336-.2177.29-.4207.4667-.6057.29-.2778.6524-.4695 1.0463-.5535z"/><path clip-rule="evenodd" d="m102.493 40.0067c-.032-.0917-.113-.1584-.212-.1734-.1.01-.185.0834-.211.1817l-.562 1.7617c-.012.0433-.003.0916.025.1266.025.0367.063.06.107.0667.075 0 .143-.0117.171-.1067l.085-.3083h.799l.093.3017c.022.0633.083.1066.152.1066.05.0017.098-.02.13-.06.03-.0516.031-.1133.008-.1683zm.087 1.3116h-.62l.328-1.1333.347 1.1333zm-1.516-.5866h-.465c-.125 0-.141.065-.141.12-.009.0766.048.1433.123.15.007.0016.013.0016.018.0016h.329v.0917c.023.2683-.147.515-.405.59-.165.005-.314-.095-.372-.2483-.077-.1734-.113-.36-.108-.55.001-.1884.045-.3717.13-.5384.05-.1366.176-.2316.321-.2416.137.0133.259.095.32.2166.035.06.109.08.169.0484.06-.0184.095-.08.076-.14v-.0034c-.081-.24-.315-.395-.568-.3766-.225-.02-.435.1-.535.3016-.1316.2217-.1983.475-.1933.7334-.0067.2616.0533.52.1767.75.1036.2116.3146.3483.5496.35.127-.0017.254-.0367.364-.1017.183-.14.313-.3417.36-.5683.021-.1234.03-.2467.028-.3717 0-.1-.025-.2133-.177-.2133zm-2.9928-.5827c.08 0 .1466-.065.1466-.145 0-.0817-.0666-.1467-.1466-.1467h-.8567c-.08 0-.145.065-.145.1467 0 .08.065.145.145.145h.2783v1.6517c0 .085.0684.1516.1517.1516s.1517-.0666.1517-.1516v-1.6517zm-1.5365-.1247v1.1417c.0083.1267-.02.2533-.0834.3633-.07.095-.185.1467-.3016.135-.12.01-.235-.04-.3084-.135-.0666-.1083-.0983-.2366-.09-.3633v-1.1417c0-.0833-.0683-.1516-.1516-.1516-.0834 0-.15.0683-.15.1516v1.045c-.015.2217.0366.4434.15.6334.13.1733.3383.2683.5533.2533.215.02.4267-.075.5533-.2533.105-.1917.1517-.4117.1367-.6334v-1.045c0-.085-.0683-.1533-.1533-.1533s-.1534.0683-.1534.1533zm3.0357-.0203c0 .08-.065.145-.145.145h-.275v1.6517.0016c0 .0834-.0684.1517-.1534.1517-.0833-.0017-.15-.0683-.15-.1533v-1.6517h-.2783c-.08 0-.1467-.065-.1467-.145 0-.0817.0667-.1467.1467-.1467h.8567c.08 0 .145.065.145.1467zm6.6256 0c0 .08-.065.145-.146.145h-.272v1.6517.0016c0 .0834-.068.1517-.153.1517-.084-.0017-.15-.0683-.15-.1533v-1.6517h-.28c-.08 0-.145-.065-.145-.145 0-.0817.065-.1467.145-.1467h.855c.081 0 .146.065.146.1467zm-1.859 1.1583-.048.0184.381.485c.034.0366.052.0833.054.1316-.002.0784-.055.125-.144.125-.053.0017-.105-.0233-.133-.0683l-.455-.625h-.283v.5583c.001.0084.001.0184 0 .0267-.004.08-.074.1383-.15.1333h-.025c-.08-.01-.137-.0833-.127-.1616v-1.7567c-.002-.0417.013-.0833.038-.1167.034-.0333.077-.0516.124-.0483h.458c.178-.005.355.0433.505.1417.155.12.25.3016.26.4966.022.1784-.043.3567-.173.4784-.079.0816-.175.1433-.282.1816zm-.633-.2216h.313c.012.0016.025.0016.037.0016.24.0084.44-.18.446-.42-.001-.1016-.046-.1983-.123-.2633-.087-.0783-.197-.1167-.313-.1117h-.36zm-9.9948-.039c-.1983-.115-.42-.1817-.6483-.195-.15-.025-.2517-.1667-.2267-.3167 0-.0033 0-.0067.0017-.0083.05-.1534.2016-.2517.3616-.235.1434-.0034.2817.0566.3784.165.0816.1.2316-.01.2316-.0917 0-.095-.145-.3617-.5883-.365-.1583-.005-.3133.04-.4467.1267-.1367.0866-.2267.2333-.2433.3966-.0167.175.045.3484.1683.475.1117.1067.2617.165.4167.165.185-.0083.3617.0834.465.2384.04.0966.0183.2066-.0567.28-.1016.0816-.2283.125-.3566.1216-.14-.0033-.275-.0566-.3784-.1516-.0483-.055-.125-.0817-.1983-.0634-.1067.0367-.0917.1667-.0834.1884.1367.22.3801.3483.6367.34.22.015.4367-.0634.5984-.2134.1066-.115.165-.2666.1616-.4233.015-.17-.0616-.3333-.2-.4333zm1.4995-.874c-.0067.0816-.0767.1416-.1583.1366h-.28v1.6534c0 .0833-.0684.15-.1517.15s-.1517-.0667-.1517-.15v-1.6534h-.2783-.02c-.0817-.0066-.1417-.0766-.1367-.1566.0067-.0817.0767-.1417.1567-.1367h.8617.0216c.0817.0067.1417.0767.1367.1567z" fill-rule="evenodd"/><path clip-rule="evenodd" d="m99.2234 46.4739v-.0017c.0134.2117-.15.3917-.3616.4034-.015.0016-.0284.0016-.045 0-.075 0-.1017-.1167-.11-.2867v-.195c0-.08.005-.155.0116-.2367.005-.055.005-.1133.0067-.1683.0017-.0567 0-.1317 0-.1967-.0083-.1416 0-.285-.0217-.425-.025-.1716-.0666-.34-.1216-.5033-.0334-.1067-.0667-.1967-.11-.2983-.02-.045-.0567-.1-.08-.1434-.0217-.0416-.0484-.08-.085-.1116-.05-.0467-.1234-.0684-.1684-.1217-.015-.02 0-.045.02-.0583.1984-.105.44-.075.6067.075.265.2166.4283.5333.4517.8766.0683.4617.0716.93.0066 1.3917zm6.7616 3.1334v-.0017c-.082.015-.163.015-.243 0-.082-.015-.155-.0633-.202-.13-.052-.0583-.088-.1283-.107-.2033 0-.0484.045-.09.082-.12.125-.0884.228-.2017.308-.3317.064-.12.099-.2517.102-.385 0-.0233-.048-.0367-.067-.02-.081.08-.135.1983-.23.2617-.09.06-.195.09-.303.085-.073-.0067-.143-.04-.192-.0934-.046-.0616-.081-.1316-.103-.205-.023-.0633.077-.1116.142-.125.14-.01.276-.0516.401-.1216.077-.045.142-.115.18-.2.025-.0667.035-.135.037-.2067 0-.0317.018-.0517-.012-.0417-.075.025-.126.0684-.191.0884-.12.04-.252.0333-.367-.0234-.115-.0833-.207-.1916-.273-.3166-.015-.0234 0-.0717.025-.075.115-.0234.215-.1517.301-.3034.02-.03.035-.0633.049-.0983.016-.0433.068-.0883.075-.11.021-.09.03-.1817.025-.2733-.012-.0784-.05-.1484-.109-.2017-.013-.0183-.078-.02-.088 0-.052.095-.022.2167-.077.3083-.061.0984-.141.1834-.236.25-.047.0367-.114.085-.167.06-.088-.045-.155-.1283-.178-.2266-.014-.115.013-.2334.071-.3334.107-.21.235-.41.379-.595.106-.1366.218-.2283.316-.38.067-.0983.117-.31.03-.3433-.09-.0333-.143.175-.223.2233-.312.1167-.603.275-.87.4734-.122.1616-.212.3483-.26.5466-.04.105-.013.2684-.057.3717-.018.04-.101.0767-.133.0517-.102-.0917-.175-.21-.215-.34-.022-.09-.015-.1834.02-.2684.012-.0366-.015-.07-.042-.0533-.121.0683-.215.1783-.261.3083-.052.1784-.035.3684.043.535.148.2484.313.4884.492.715.126.2184.295.4484.408.6567.118.1733.167.385.135.5933-.048.215-.158.4117-.318.5634-.02.0133-.065.035-.084.02-.165-.1567-.34-.3034-.52-.44-.221-.1417-.468-.24-.725-.29-.318-.035-.64-.0384-.96-.0084-.335.0117-.671.0584-1.008.0484-.273.0116-.545-.0234-.8049-.1067-.195-.075-.3583-.215-.46-.3967-.0933-.1933-.1283-.4083-.1017-.6216.0134-.1734.065-.3417.15-.4934.0717-.135.18-.2466.3134-.3216.1502-.0817.3252-.1067.4912-.0684.084.0367.16.0867.227.1467.068.0567.13.1167.187.1833.008.01.053 0 .056-.0116.024-.2267-.008-.455-.095-.6667-.085-.1633-.183-.3167-.296-.4617-.012-.035.095-.0316.131-.035.184-.01.362.0434.509.15.1.07.183.1584.248.2617.007.0117.035 0 .035-.0117.018-.275-.075-.5483-.258-.755-.082-.1183-.192-.215-.32-.28-.077-.0266.058-.0866.123-.0866.143-.015.288.0066.423.0616.05.0234.092.055.13.0934.027.025.057.0483.087.0683.025.015.052-.0317.042-.0583-.019-.08-.05-.1584-.095-.2267-.214-.21-.442-.4067-.68-.585-.019-.015-.064-.0383-.077-.0567-.065-.0933-.115-.195-.15-.3033-.015-.04-.077-.08-.098-.1383-.017-.0584-.01-.12.016-.1734.07-.1316.135-.1516.282-.22.112-.0366.227-.06.342-.0716.038-.005.071.035.108.0233.02-.005.028-.055-.027-.0983-.138-.0967-.301-.15-.471-.15-.224-.0384-.452-.0217-.665.0483-.1602.0883-.3386.14-.5202.1517-.1184.005-.2384-.0184-.345-.0684-.0767-.0366-.1317-.1066-.15-.19-.005-.1366.0283-.2733.095-.3933.0533-.0867.1333-.155.2266-.195.0634-.0317.1067-.0567.1017-.1017-.0067-.045-.0933-.0233-.125-.0116-.2017.045-.3933.12-.57.2233-.13.1167-.245.25-.345.3933-.0233.0267-.05.0484-.0833.0617-.0384.015-.0767.0067-.1184.0217-.1433.055-.2883.1266-.4266.1916-.1384.065-.2484.1767-.39.2267-.1117.035-.2267.0533-.3417.055h-.01c-.23-.02-.53-.02-.5833.2533-.015.0567.0116.115.0616.1434.04.025.0817.0466.125.0616l.14.05c.035.0084.065.025.0867.05l.0083.0117v.0117.0133.0133c-.0166.0417-.055.0684-.0983.07-.125.0284-.255.0117-.3667-.0466l-.025-.0134c-.05-.0316-.1166-.0216-.1566.0234-.2467.2016-.5017.39-.7684.565-.0283.0166-.055.0383-.075.0616-.015.0167-.025.0367-.0283.0584-.0033.0183-.0033.0366 0 .055.01.06-.0617.0883-.11.1033-.0567.0133-.0967.0633-.0983.12-.005.045-.0017.09.0083.1333.0133.085.0933.1434.1783.13.0167-.0016.0334-.0083.0484-.015.0666-.0266.1333-.0483.2-.0683.0366-.0133.0783-.0067.1083.0183.005.0034.0083.0084.0133.015l.005.0117v.0117c.0017.02-.0033.04-.0133.0566-.025.045-.0533.085-.085.125-.0317.045-.0567.1117-.005.15.095.0767.23.07.3167-.015.0416-.0433.0783-.095.1016-.15.0267-.06.0717-.105.13-.1316.1134-.0484.235-.075.3584-.075h.0066c.0884-.0034.1734.0183.2484.0633.0216.0117.04.0333.05.0567l.0066.0166v.0167.0133.0067c-.0233.0833-.0566.1633-.105.2367-.0216.0516-.0333.1183-.0583.185-.0233.0666-.06.135-.08.1866-.02.0534-.0317.0584-.0767.0967-.1066.0917-.2566.18-.36.2733-.1883.1767-.3533.3784-.49.5967-.0433.07-.0733.145-.0933.2233v.0067c-.0367.1917-.075.4217-.3033.295-.215-.12-.4234-.2533-.625-.3983-.0734-.0584-.1367-.1267-.1884-.2034-.1966-.2883-.4416-.0333-.5716.1767-.2067.3233-.4334.6333-.68.93-.0384.0467-.0717.1-.095.1567-.0317.08-.0784.1533-.1384.2183-.0683.09-.1033.2033-.0966.3167.005.195-.055.3866-.1734.5433-.0833.09-.135.2083-.1383.3316 0 .1084 0 .2167.0067.3251.005.08.0366.15.1283.145.0217-.0034.0417-.01.0617-.0184.165-.0633.32-.15.4616-.2583.02-.0167.0384-.0333.0567-.0533.0417-.045.0533-.1117.0283-.1684-.0066-.015-.0183-.0283-.03-.0416-.01-.0084-.02-.0184-.03-.0284-.035-.0233-.0616-.0566-.075-.0966 0-.01-.0033-.0184-.005-.0284-.005-.0366-.0016-.0733.0084-.1083.01-.0483.0183-.095.025-.145.005-.0567.0333-.11.0766-.1467.075-.0616.1517-.1216.2267-.1816.11-.09.1483-.2417.0933-.3734-.0083-.025-.015-.05-.0183-.075-.0017-.0133-.0017-.0283 0-.04.0117-.06.035-.115.075-.1616.05-.075.0983-.1417.1517-.2117.0683-.1183.1833-.2033.315-.2383.17-.02.3366.035.46.1516.1316.1667.2233.365.265.5767.0466.1717.1183.3367.21.4883.06.1167.2033.1634.3183.1034.0183-.0084.0333-.02.0483-.0334l.0217-.0133c.0083-.005.0167-.0083.025-.0117.0483-.0133.1.01.125.0534.0633.075.13.1466.2033.2116.0867.0534.0134.12-.0583.1184h-.1767c-.0516-.0017-.1033.0066-.1516.025-.3534.1099-.7184.1666-1.0884.1683-.0233 0-.0466.0017-.07.0067-.0433.0083-.0833.0366-.1016.0766-.0067.0134-.0117.025-.0167.04-.015.035-.0267.0684-.04.105-.0317.0817-.0317.175 0 .2583.1483.5034.1867 1.0317.1117 1.5501-.04.1866.0066.38.1233.5283.045.055.105.0933.1717.1117.0283.0083.0533.0216.075.04.0483.0549.0716.125.07.195.0083.1033.05.1983.1183.2733.0917.1167.2083.2133.3383.2817.015.0066.0284.0133.0434.0183.07.0316.1533 0 .1866-.07v-.0017c.0784-.1666.1167-.35.1117-.5366-.0033-.085-.0633-.1584-.1467-.1784-.01-.0033-.0183-.005-.0283-.0067-.03-.0016-.0617.0101-.0833.03l-.0084.0067c-.015.0083-.0316.0134-.05.0167-.0066.0017-.015.0017-.0233 0-.0083.0017-.0167.0017-.0267 0-.0083 0-.0166-.0033-.0216-.0067-.0084-.0017-.0167-.005-.0234-.01-.0466-.03-.0816-.075-.1033-.1266-.0417-.1034-.0483-.2184-.0183-.3251.0066-.0316.015-.0633.02-.0949.0116-.05.015-.1017.0066-.1517-.0066-.0517-.02-.1-.04-.1467-.0383-.0833-.05-.1166-.12-.14l-.0233-.01c-.0333-.01-.0617-.0266-.0883-.0483-.0067-.0033-.01-.0083-.015-.015-.0117-.0217-.015-.05-.0067-.075.0383-.2433.0467-.49.025-.7367 0-.08-.0183-.165.05-.2266.17-.1417.4533-.0284.63.0383.2317.0817.47.1433.7117.1833h.0066c.3934.0384.79-.07 1.11-.3016.0317-.0267.0334-.035.0684-.0134.1283.075.2066.165.3366.2467.29.19.6084.335.9434.4317.4483.0433.9016.0383 1.35-.0117.1132.0067.2262.0316.3312.07.027.0083.045.0333.042.06-.012.165-.075.3233-.075.4883.012.09.043.175.093.25.04.075.065.18.114.2534l.046.0866c.26.3233.267.7817.015 1.11-.17.165-.351.3134-.5462.4467-.185.14-.4017.225-.6317.245-.1533.0083-.2983.0683-.4083.1733-.1267.1334-.2734.2467-.4334.3384-.065.025-.1166.0783-.1366.1466-.0784.1833-.135.3767-.1717.5734-.0233.1133.0617.15.16.1383.1683-.0267.3317-.07.49-.1333.085-.0267.1317-.115.1067-.2-.0034-.0117-.0084-.0234-.015-.0334l-.0517-.1433c-.0067-.0134-.01-.0283-.0117-.0433v-.0167-.0183c.005-.015.0134-.0317.025-.0434.0284-.035.06-.065.0984-.0866.045-.0334.1-.0467.1566-.0417.035.0066.0717.0167.1067.0267.2033.0716.4283-.01.5383-.195.015-.0217.0284-.0451.0434-.0684.0383-.0667.0883-.1233.1516-.17.4266-.2766.8866-.5016 1.3666-.6733.042-.01.077-.0417.093-.0817.007-.06.004-.12-.01-.1783-.018-.17-.021-.34-.008-.51.003-.1184.045-.33.198-.3334.062.0084.117.0434.152.0967.153.195.358.3434.592.4234.071.025.14.0516.208.0816.183.0834.312.2517.342.4484.021.1083-.004.2216-.069.31-.165.215-.316.4366-.461.6666-.074.12-.172.2234-.287.3034-.177.12-.348.2499-.513.3899-.132.0867-.242.2017-.32.3384-.092.2333-.17.4717-.239.7117-.036.1383.049.17.17.1433.184-.0467.36-.1184.524-.2117.025-.0133.048-.0317.068-.0533.022-.0284.035-.0634.033-.1-.008-.0633-.033-.1234-.075-.1717-.046-.0583-.06-.1366-.036-.2066.005-.01.01-.0201.015-.0284.025-.0383.065-.065.106-.0766.132-.0417.264-.075.397-.1117.177-.0233.337-.105.462-.23.023-.03.04-.065.05-.1033v-.01l.008-.03c.157-.54.52-.9984 1.01-1.2767.062-.0333.102-.0967.107-.1667.01-.0683.005-.1367-.022-.2016l-.372-.5734c-.108-.1483-.178-.3217-.203-.505.003-.1917.052-.3833.142-.5533.033-.0484.063-.1.091-.1517.065-.1433.19-.1933.29-.3233.102-.125.195-.2583.277-.3983.082-.1817.148-.3717.197-.5667.048-.15-.027-.3083-.012-.4633.01-.055.035-.1084.07-.15.065-.0917.155-.1617.258-.2001.109-.0249.222-.0183.327.0217.193.055.32.13.517.175.103.0217.208.015.31-.0183.106-.0283.205-.085.281-.1633.025-.03.025-.0884.002-.085z" fill-rule="evenodd"/></g><path clip-rule="evenodd" d="m119.871 29.5268c-1.71-.6517-3.452-1.2167-5.22-1.6917-.029-.0083-.044-.05-.044-.0766v.2266c0 .0317.015.0734.044.0767 1.763.4733 3.501 1.035 5.205 1.685.076.0267.076-.0317.076-.055l.014-.2033c0 .0233-.015.0566-.074.035zm.075-1.655c-1.224-.4533-2.629-.915-4.04-1.3083-.02-.005-.054 0-.054.0166l-.01.2184c.02-.01.04-.0134.064-.01 1.411.395 2.803.855 4.026 1.31.02.0066.024-.0234.024-.0434l.013-.2266c0 .0216-.003.0466-.023.04zm-.075-1.7783c-1.044-.3834-2.54-.9067-3.905-1.255-.019-.005-.054.005-.054.025v.2216c0-.0183.035-.03.055-.025 1.365.3484 2.842.8634 3.885 1.2484.092.0333.145.0216.145-.065l.017-.195c-.008.0633-.058.0733-.143.0416zm-6.154 1.5033c-.335-.075-.67-.16-1.02-.2417-.04-.015-.066-.0516-.065-.095v.2267c0 .0417.027.08.065.095.35.08.674.1633 1.007.24.087.02.1.005.102-.0283l.015-.2267c-.002.0317-.017.0467-.104.0267zm-3.966-.8183c-.309-.0617-.722-.1134-1.095-.1784v.1917c.373.065.773.1083 1.081.1717.034.0066.085-.0184.085-.0534l.01-.17c-.016.0267-.05.04-.08.035zm2.91-.785c0-.0884 0-.1317.005-.2267 0-.06-.109-.075-.125-.075-.894-.1933-1.767-.37-2.667-.53-.033-.005-.048-.0033-.048.03v.2283c0-.035.011-.0366.045-.03.9.16 1.773.3367 2.666.5284.022-.0017.124.0133.124.0716zm-4.484.5366c-1.646-.2516-3.096-.3783-4.573-.5216-.327-.0767-.563-.3634-.575-.7v.2266c.012.3367.248.6234.575.7 1.477.1384 2.913.265 4.562.515.023 0 .075-.0183.075-.0433l.013-.2183c-.003.02-.05.0416-.075.0366zm.064-3.3633c-1.277-.1367-2.554-.3717-3.832-.475-.083-.0067-.2.0367-.2.12v.2267c0-.0834.117-.1267.2-.12 1.278.1033 2.555.3366 3.832.475.033 0 .086-.0167.086-.0517v-.2267c0 .03-.051.0517-.086.0517zm-6.704 2.6983c-1.516-.0883-3.0362-.0883-4.5512 0v.2267c1.515-.0883 3.0352-.0883 4.5512 0 .365-.01.672-.2767.737-.635v-.2267c-.067.3567-.372.62-.737.6317zm-3.7879-1.5033c1.1167.0267 2.105.005 3.1869.0767.075.005.145.0466.145.125l.005-.2184c0-.08-.07-.1283-.15-.1333-1.0819-.0717-2.0702-.0517-3.1869-.075-.3217-.0083-.745-.2583-.74-.58v.2267c-.0033.3183.42.5683.7417.575zm4.3419-1.5533c.083-.0134.145-.085.146-.1684v-.2283c-.001.085-.063.1567-.146.17-1.097-.0333-2.7019-.0867-3.7786-.0467-.0683 0-.11.0234-.1116.09l-.0167.2184c0-.0684.06-.08.1283-.0834 1.0784-.04 2.6816.01 3.7786.045zm-10.1019 3.5016-1.1333.1467v.2267l1.1333-.1517c.0183 0 .0317-.0167.0317-.035-.0017 0-.0017 0-.0017-.0017v-.2266c.0033.0183-.01.035-.0283.0383h-.0017zm4.3416-.405-1.1283.0834c-.0333-.2884-.1283-.5684-.2766-.82-.1817-.295-.4167-.4434-.6167-.4067l-2.2917.2467v.2266l2.29-.2483c.2-.0367.4367.1117.6184.4083.1483.2517.2416.53.2766.82l1.1283-.0833c.025 0 .075 0 .07-.0233v-.2267c.0017.0217-.0433.0183-.0683.02zm-.1933-2.1233v-.27c.0184.3283-.1733.635-.475.765.0567.0433.11.0917.16.1417.2067-.145.3267-.3867.3167-.64zm-1.4833-1.0617-2.6883.26-.0217.01v.2434l.0217-.0117 2.6883-.2583c.1-.0184.1933.0483.2116.1483 0 .005.0017.01.0017.0167v-.2434c-.0083-.1-.0967-.1766-.1967-.17-.005 0-.01.0017-.0166.0017zm-5.355 3.9667c-1.2984.2267-2.625.4867-3.94.7767-.1984.0016-.3834-.0984-.4917-.265-.1467-.17-.2367-.38-.2533-.605v-.02-.0167.235c.0233.2233.1116.4333.255.605.1566.1833.34.3117.49.2783 1.3166-.29 2.645-.5283 3.9417-.755.255-.06.4816-.2016.6483-.4016.1433-.1517.2267-.35.235-.5567v-.2417c-.0083.2084-.0917.405-.235.5567-.1667.2017-.3933.345-.65.4067zm-.5417-3.205c-.0816-.0467-.175-.0633-.2666-.0483-.72.105-1.6384.285-2.3367.4166-.11.02-.2083.07-.29.1434-.06.0633-.0967.1466-.0983.235v.24c.0016-.0884.0383-.1717.0983-.235.0817-.0734.18-.1234.29-.1434.6983-.1316 1.6167-.3116 2.3367-.415.0916-.0166.1866.0017.2666.0484.0867.055.1367.1533.1284.255l.0033-.2384c.01-.105-.04-.205-.13-.2616zm-8.99 5.575c0 .035 0 .065-.0333.075-.245.08-1.3867.515-1.3867.515v.1783.0417s1.1417-.43 1.3867-.51c.0333-.01.0333-.0417.0333-.075zm4.395-3.1733c.0034.135-.04.2666-.125.3733-.0866.11-.2016.195-.3333.2433l-3.92 1.1984c-.0317.01-.0383.0583-.0383.0916l.005.22c0-.035 0-.085.0333-.095l3.9217-1.2016c.1316-.0467.2466-.1317.3333-.2434.085-.105.1283-.2383.125-.3733v-.2117zm-4.41.09c-.0416.0116-.09.0466-.09.0866v-.22c0-.0416.0484-.0766.0884-.0883.9466-.38 1.915-.705 2.9-.9717.0883-.025.1716.075.1783.1484l.0216.215c-.0083-.07-.1016-.1734-.19-.1517-.9883.27-1.9599.5983-2.9099.9833z" fill="#432918" fill-rule="evenodd"/><g mask="url(#d)"><path clip-rule="evenodd" d="m97.7316 21.43c-.2966.0117-.6983.2617-.7016.5567l-.02 1.5633c-.005.3217.4183.5717.7383.58 1.1183.025 2.1067.005 3.1867.075.08.0067.152.0517.152.1333l-.009.3167c.004.0567-.04.105-.096.1083h-.012c-1.26 0-2.5784-.0583-3.8534.0434-.0666.005-.0633-.0134-.0683.0533l-.055.9266-.0067.0767c1.5167-.0883 3.0364-.0883 4.5534 0 .367-.0117.673-.2767.737-.6367l.015-1.5149c0-.31-.384-.5417-.634-.5567-1.068-.0667-2.2847-.03-3.3697-.0583-.0633-.0067-.11-.06-.1067-.1217l.02-.35c0-.0683.0467-.0883.115-.0917 1.075-.0383 2.6784.0117 3.7784.0467.082-.0133.143-.0833.143-.17v-.7667c0-.04-.075-.1616-.15-.1633l-.001-.0033c-.945-.0417-1.945-.0734-2.9304-.0734-.4816 0-.96.0084-1.425.0267zm-6.8666.5933c-.0017 0-.0034 0-.005 0l-.0067 4.375v.0567l1.1383-.15c.02-.0017.0317-.0183.03-.0383v-1.265l2.2934-.2467c.1983-.0367.4366.11.6166.4083.15.25.2434.53.2784.82l1.1283-.0833c.0233 0 .075 0 .0683-.0233-.0333-.61-.3-1.1817-.745-1.6017v-.0017.0017c.3017-.1233.4934-.4233.475-.7483.0117-.4567-.005-.9117-.0516-1.3667-.08-.3383-.375-.5817-.7234-.595-1.0216.0167-3.2383.3-4.4966.4583zm1.0766 1.9534v-.9867l.02-.0117 2.6867-.26c.1033-.0166.1967.0517.2133.1517 0 .005.0017.0083.0017.015l.005.4567c-.0033.195-.145.3633-.3383.3983l-2.5684.2533zm12.1084-2.365c-.488-.0167-.913.3233-.998.8016l-.024 2.8884c.014.3366.249.6233.577.7016 1.477.1367 2.925.2684 4.573.5184.025.005.077-.0184.077-.0417v-1.005c-.012-.0333-.035-.0567-.068-.0717-1.097-.1383-2.547-.3333-3.84-.4683-.08-.0183-.137-.0867-.14-.1683v-1.965c0-.0817.118-.125.203-.1184 1.277.1034 2.552.3384 3.83.4734.033 0 .087-.0167.087-.05l.026-.9234c-.003-.0383-.031-.07-.071-.0783-1.419-.2067-2.505-.3233-4.234-.495zm4.732.6316c-.014.6634-.105 3.525-.125 4.2867v.0633c.376.0634.788.1167 1.095.1784.035.0066.085-.0184.085-.0534-.005-.5 0-1.08-.01-1.535 0-.0316.015-.0333.048-.03.898.1617 1.773.3367 2.667.5284.018.0066.123.02.123.0766-.003.5217-.018.9667-.032 1.49-.001.0434.027.0817.067.095.35.0817.685.165 1.017.2417.088.02.101.0067.105-.0283.053-1.09.07-2.8367.086-4.3117 0-.0183-.006-.0467-.026-.0533-.365-.0834-.715-.1717-1.092-.255-.035-.0067-.053.0516-.055.085-.037.5383-.022 1.0383-.065 1.5766 0 .02 0 .03-.022.0267-.895-.185-1.846-.3867-2.738-.5517-.025-.0033-.013-.0483-.012-.075.005-.5283.004-1.0516.007-1.5783-.003-.0333-.028-.0617-.06-.0717-.352-.06-.65-.1083-1.008-.165-.03 0-.054.0334-.055.06zm-19.4154 0c-1.3116.205-2.6316.485-3.9633.7717-.215.0617-.4067.1817-.5567.3467-.1416.1283-.2316.305-.25.4983l.0134 2.7c.0083.2383.0983.465.255.6433.1066.1683.2916.2667.4933.265 1.3183-.29 2.6467-.55 3.9483-.7783.255-.06.4817-.2017.6484-.4017.145-.1517.2283-.35.2383-.5583l-.01-2.815c-.0167-.19-.1117-.3617-.2633-.4783-.1367-.125-.315-.195-.4984-.195-.0183 0-.0366.0016-.055.0016zm-3.525 3.98c-.0583-.0683-.085-.1566-.075-.245v-1.7533c.0017-.0883.0367-.1717.0967-.235.0833-.0733.1833-.1233.2917-.145.7016-.1317 1.6216-.3117 2.3416-.415.0917-.0167.1884.0017.2684.0483.0866.055.1383.1534.1333.2584l-.0233 1.7016c.005.1-.04.1934-.12.2517-.085.0617-.1834.1-.2884.115-.6916.14-1.7016.3267-2.4133.46-.02.005-.04.0083-.0617.0083-.0533 0-.1066-.0166-.15-.05zm28.8714-2.8c-.018-.0033-.018.0284-.018.045-.035 1.4634-.072 2.8217-.085 4.2867 0 .0267.013.0683.043.0767 1.767.475 3.509 1.0383 5.22 1.6916.075.0267.075-.0316.075-.0533.005-.3333.022-.6733.005-1.005-.003-.0367-.026-.0667-.061-.08-1.314-.5067-2.655-.9433-4.015-1.31-.025-.0083-.042-.0333-.044-.0617l.019-.4383c.001-.015.033-.0217.051-.015 1.412.3917 2.819.855 4.042 1.3083.022.0084.022-.0216.022-.0433.015-.375.023-.7517 0-1.1283 0-.03-.019-.0534-.047-.0617-1.253-.4567-2.568-.8833-3.962-1.265-.021-.0083-.043-.025-.043-.045v-.465c0-.02.032-.03.052-.025 1.363.3483 2.86.8717 3.905 1.255.09.035.143.02.143-.065.003-.38.017-.405-.003-.7833-.004-.0484-.007-.0967-.054-.115-1.716-.6617-3.466-1.2317-5.243-1.7067zm-31.563.1784c-1.5734.4016-3.15 1-4.7284 1.5783-.045.025-.075.0717-.0766.1233v3.545l.01.7984s1.14-.43 1.385-.51c.0333-.0117.0333-.0417.0333-.075l-.0233-1.2584c0-.0366.0033-.0866.0383-.0983l3.9267-1.2117c.1333-.0483.25-.1316.3366-.2433.0834-.1083.1267-.2417.125-.3783l-.0416-1.6534c-.02-.1933-.1267-.3666-.2867-.475-.15-.1066-.3283-.1633-.51-.1633-.0617 0-.125.0067-.1883.0217zm-3.4884 3.1049.0034-.8649c0-.0434.0483-.0767.0866-.0884.9517-.38 1.9217-.7066 2.91-.975.09-.0233.17.0767.1784.1517.02.1983.0283.4.0216.6l.0017.0033c0 .1117-.1567.2384-.2617.27l-2.8666.9333c-.005.0017-.0134.0017-.02.0017-.025 0-.0534-.0083-.0534-.0317z" fill="url(#c)" fill-rule="evenodd"/></g><path clip-rule="evenodd" d="m101.702 23.3093c-.323-.02-.68-.0316-1.035-.035-.348-.0065-.7069-.0082-1.0457-.0099l-.021-.0001c-.058 0-.1803.0007-.3305.0015-.4326.0023-1.096.0059-1.1145-.0015-.025-.005-.0467-.0166-.0634-.035-.0316-.04-.0466-.0883-.045-.1366-.0016-.0534 0-.1034.005-.155v-.1517c-.0033-.12.0034-.24.02-.3567.0234-.0517.075-.0767.1917-.0833.0917 0 1.5533.005 2.5464.0133h.232.13c.151-.0036.318.0016.479.0066.137.0042.269.0083.384.0067v-.7233c-.436-.0233-.73-.035-1.166-.045h-.08c-.244-.0083-.51-.015-.774-.0183-.8574-.0124-1.7741-.0043-2.1358-.0011-.0762.0006-.1278.0011-.1489.0011-.1184.0166-.23.0616-.3267.1333-.085.05-.145.1317-.1667.2283l-.01.8367-.0083.8384c.0167.0966.0767.18.165.2266.105.07.2233.11.3483.1184.137 0 .2768.0028.4158.0056h.0001l.1358.0027.5367.005c.3633 0 .7466.0067 1.13.015.3837.0083.7697.0233 1.1387.0467.105.0083.15.0516.17.1166.013.0834.016.1667.006.2517l-.005.0967-.003.0983c.01.09-.002.1817-.033.265-.034.05-.1.0683-.235.0683l-.042-.0008c-.101-.0021-.363-.0075-.478-.0075h-.46l-.5387-.0067h-.54c-.3117 0-.61 0-.89.0117s-.5984.025-.8317.04l-.0283.7233c.4-.0183.83-.035 1.1633-.0433.335-.01.6433-.0133.9183-.0133s.5034.005.7267.0116c.1614.0037.3154.0099.4714.0163h.001c.058.0024.117.0048.176.0071l.453.0183.512.0133c.12-.0083.233-.055.327-.1333.095-.0617.158-.1633.175-.2767l.008-.7933.008-.795c-.018-.1017-.071-.1933-.151-.2567-.072-.075-.165-.125-.267-.145zm-6.7889.381c-.0983.0967-.2283.155-.365.165l-1.3517.1217-1.355.1233v-.625l.0034-.6267 2.815-.28c.1083-.005.215.0234.3066.08.06.06.0917.1434.0834.2267l.0016.46c.0034.1317-.0466.26-.1383.355zm1.1783 1.3317c-.1483-.295-.355-.5584-.6066-.7734.2283-.1333.3933-.355.4533-.615.0217-.48.0033-.9633-.0517-1.4416-.025-.2284-.12-.4534-.5533-.48-.4333-.0267-4.34.42-4.34.42v2.06 2.0866l.4383-.0583.44-.06s-.0083-1.29 0-1.295c.0035-.0034.5395-.0596 1.1157-.12h.0001c.5453-.0572 1.1265-.1181 1.3259-.1417.3167-.0166.6133.1634.745.4534.1333.2466.2333.5116.2917.7866l.9483-.0583c-.02-.265-.09-.525-.2067-.7633zm8.3896-3.2308c.279.0293.654.0687 1.085.116.188.0215.386.0439.587.0667l.001.0001.002.0002c.747.0845 1.539.1741 2.048.2463v.12.3083l-.008.3717c-.477-.065-3.484-.4683-3.834-.495-.081 0-.16.0267-.225.075-.058.05-.085.125-.075.2v2.19c0 .0333.01.0633.032.0883.022.0233.05.04.083.0433.384.0381.759.0839 1.148.1312v.0001c.156.0189.313.038.474.0571.208.0252.41.0488.608.072h.001v.0001c.339.0396.668.0781.998.1212l.03.0033h.03l.265.0384.351.05v.3516l-.005.4067-.303-.045c-.61-.0859-1.181-.1459-1.775-.2084l-.19-.0199c-.61-.063-1.205-.1189-1.767-.1716l-.143-.0134-.043-.005h-.044c-.06-.0017-.12-.01-.18-.025-.11-.025-.208-.0784-.29-.155-.05-.0484-.088-.1067-.111-.1717-.027-.07-.04-.145-.039-.22l.007-1.4767s-.012-1.2366.008-1.4099c.03-.195.139-.3684.302-.4817.162-.1417.373-.2133.588-.2.09.0098.221.0236.384.0407zm9.216 1.5816c-.108-.03-.221-.0566-.333-.0816-.113-.0267-.32-.0717-.422-.0934v.0184.085.0416.0684.065l-.005.1516v.1517.0417c0 .1026-.004.2074-.008.3135v.0001l-.003.0847c-.005.135-.014.27-.025.4083v.095l-.005.1717h-.007l-.202-.0417-.151-.0316-.127-.0267-.127-.0267-.948-.1966c-.327-.0667-.658-.1334-.982-.1967l-.046-.0083-.047-.0084-.24-.045c-.08-.015-.16-.0283-.24-.0416l-.063-.0117.008-.475.007-.4583v-.165-.54-.0934c-.05-.0066-.152-.0233-.202-.0316l-.152-.025c-.06-.01-.121-.02-.183-.0284-.06-.01-.192-.03-.253-.0383v.0067.1233.065c-.007.2367-.017.5717-.029.9517-.011.38-.025.8033-.038 1.2183 0 .0818-.003.1613-.006.2401v.0001.0001c-.002.0383-.003.0765-.004.1147-.002.0521-.004.1035-.006.154v.0005.0001.0001.0001.0002c-.002.0607-.005.1203-.007.1783l-.006.1516v.0007c-.005.1216-.009.2368-.013.3444-.005.1533-.008.395-.008.515v.01c.021.0038.058.0109.095.0183.046.0089.093.018.115.0217l.122.0217.208.0333c.045.0079.117.0195.187.0306.047.0076.093.015.13.0211h.013l.005-.3117.003-.235s0-.1283.007-.2933c.008-.165.008-.3667.008-.52v-.0934c0-.05 0-.1583.004-.19v-.0033c.021 0 .101.0167.13.0233l.031.005.034.005c.151.0267.52.0984.975.19.405.08.88.1757 1.336.2673l.17.0344.065.0133.065.0117.165.0383.167.0367h.012c0 .0225-.002.085-.004.1475-.001.0625-.003.125-.003.1475v.1217.1233c0 .0983 0 .1883-.005.2783-.004.0542-.005.1084-.006.163v.0003c-.001.0326-.001.0654-.002.0984v.1067.1066.0967l-.007.165v.0117l.257.06.173.04.155.0383.243.055v-.0033l.007-.2434v-.115c.017-.4833.028-1.0366.038-1.62.01-.557.016-1.1413.023-1.7138v-.0013-.0016l.001-.0783v-.21h-.009zm6.145 2.229c0 .0967-.007.265-.012.3534h-.005l-.275-.1034-.192-.0766-.023-.0067c-.478-.17-.935-.3267-1.372-.47-.436-.1417-.848-.2683-1.235-.3767l-.008-.0033h-.01l-.338-.0967-.352-.0983-.298-.0817v.0234.215.215.09.2983l.186.05.13.035.227.0667.23.0633c.497.145.995.295 1.487.4533.493.1584.983.3217 1.461.4917l.115.0383.26.09v.115c0 .0984-.01.7484-.01.7484l-.015-.0067-.253-.075-.177-.055c-.505-.1783-1.038-.3567-1.585-.5283-.548-.1734-1.106-.34-1.661-.4984l-.437-.125-.007.4134-.008.4016v.0084l.177.055.341.0983.334.1.135.0417.135.0416c.48.145.94.2934 1.385.445.145.0492.293.0972.44.1451.302.0982.602.1957.871.2999l.042.0134.043.0183.077.03.142.0533c.01.2634.003.5284-.02.79h-.009l-.253-.09-.048-.0183-.05-.0167c-.65-.2364-1.296-.4418-1.901-.6342-.15-.0476-.297-.0945-.441-.1408-.725-.2316-1.61-.5083-2.272-.6866v-.0167c.005-.3567.015-1.035.029-1.6733.003-.2097.009-.5376.014-.8851v-.0015c.012-.7076.024-1.4955.029-1.5301.072.0117 1.598.4483 2.337.6867.736.2383 1.48.495 2.208.765l.027.0116.165.0584.238.085c0 .0473 0 .1204.001.1933v.0016.0015c0 .0723.001.1441.001.1902zm-31.1276.3282c.2317-.0484.3917-.2584.3784-.495.0035-.1665-.0038-.9307-.0084-1.408-.0019-.1966-.0033-.3446-.0033-.382 0-.2367-.1017-.4467-.4633-.3883-.4617.0766-1.975.3483-2.48.4466-.415.0817-.5767.2384-.5767.5934v1.7699c0 .2534.1567.4417.42.3934.2633-.0484 2.4817-.4734 2.7333-.53zm.5967-3.4767c.3067-.055.6.1467.6617.4517.0033.195.0183 2.5966.0183 2.79-.0367.3683-.3.6767-.6567.775-.3666.0717-3.5633.7-3.8533.76-.29.0583-.6583-.3133-.6583-.62s-.0034-2.7717-.0034-2.7717c0-.3067.3334-.5533.62-.625.285-.07 3.6534-.7183 3.8717-.76zm-6.6563 3.4557c.0916-.03.1766-.0817.2466-.15.0767-.0684.1234-.1634.1317-.265 0-.115-.02-.465-.03-.5784-.01-.0766-.045-.1466-.0983-.2016-.0534-.0584-.13-.0934-.21-.095h-.0484s-.9133.26-1.4066.4266c-.4917.1667-1.7284.64-1.7284.64s.0184 1.2017.0184 1.2284zm1.0416-2.055c.1417.0783.2367.2166.2634.3766l.0383 1.6484c.0033.12-.045.235-.1333.3167-.0567.065-.13.1133-.2117.145l-4.07 1.2716.02 1.4s-1.0217.37-1.0833.385v-1.965c0-.446-.0096-1.1223-.0161-1.5811-.004-.2818-.0069-.4816-.0056-.4956.0017-.0366.0233-.0466.08-.0666.0054-.0019.0213-.0076.0472-.0168.2478-.0884 1.4022-.5001 2.8011-.9816.46-.1583 1.5334-.4833 1.7517-.5216.1767-.0384.3633-.0067.5183.085z" fill="#000" fill-rule="evenodd"/><path clip-rule="evenodd" d="m108.327 94.068h-.002l-15.3812.005c-.2117.0117-.3934-.135-.4067-.3266v-.0184-1.495c0-.195.175-.3533.3917-.3516h.0133 17.4529v-1.8634l-17.8962-.0166c-1.3284.0116-2.3934 1.02-2.38 2.2283v.0033 1.495c0 1.2234 1.09 2.215 2.435 2.215l15.3832-.0033c.212-.01.392.1383.403.3317v.0133h-.001l.003 1.4983c-.002.1934-.175.3467-.385.345h-.018-17.4869v1.873h17.8749c1.342.002 2.43-.9963 2.432-2.2163v-1.5c-.004-1.2217-1.09-2.2117-2.432-2.2167z" fill="#000" fill-rule="evenodd"/><path clip-rule="evenodd" d="m84.8962 94.798h-.0016c.0033.19-.1567.35-.3667.365h-15.4817v-2.9583l15.4384.005c.2283.0033.41.1717.4116.3783zm.08 1.79c1.3067-.0433 2.3384-1.025 2.33-2.2133l.0017-2.1617v-.0017c-.0017-1.215-1.085-2.2116-2.4217-2.21v.01l-18.25-.01v9.9997h2.41v-2.6447h13.4317c1.3433 0 2.435.9917 2.435 2.215v.4297h2.4217v-.063h.0016c0-1.44-.9233-2.7483-2.36-3.35z" fill="#000" fill-rule="evenodd"/><path clip-rule="evenodd" d="m61.3285 97.425c-.005.195-.1733.3533-.3866.365h-14.7484c-.1666-.0017-.3033-.12-.3166-.27v-5.005c.025-.18.1966-.3133.395-.3083l14.635.0033c.23.0017.415.1683.4216.3767zm.02-7.425h-15.4516c-1.3434-.005-2.44.995-2.4467 2.2184v5.5666.0034c.01 1.2216 1.105 2.2196 2.445 2.2116h15.4167c.005 0 .0116-.0166.0183-.0166 1.3333-.0067 2.4067-.995 2.3983-2.2067l.0017-5.565c.0067-1.205-1.0567-2.2-2.3817-2.2117z" fill="#000" fill-rule="evenodd"/><path clip-rule="evenodd" d="m38.2067 94.798c.005.1917-.1567.69-.365.7017h-15.4317v-3.295l15.3867.005c.2283.0033.41.1717.4116.3783zm-.0167-4.7866v-.01h-18.19v9.9996h2.41v-2.6446h15.78.0117c1.3366-.0017 2.4183-.99 2.415-2.205l.0033-2.94h.0017v-.0084c-.0067-1.2166-1.095-2.1966-2.4317-2.1916z" fill="#000" fill-rule="evenodd"/><path clip-rule="evenodd" d="m180 91.8782v-1.8767h-21.368v10.0005h21.368v-1.8738h-18.956v-2.1933h18.956v-1.8634h-18.956v-2.1933z" fill="#000" fill-rule="evenodd"/><path clip-rule="evenodd" d="m153.373 94.055h-14.647v-4.055h-2.41v10h2.41v-3.7516h14.647v3.7516h2.41v-10h-2.41z" fill="#000" fill-rule="evenodd"/><path clip-rule="evenodd" d="m113.632 92.2192.001 5.565c-.008 1.2167 1.069 2.21 2.404 2.2168h.013 17.458v-2.2101h-17.131c-.165-.0034-.302-.12-.315-.27v-5.005c.025-.18.195-.3134.393-.3084h17.053v-2.195h-17.428c-1.347-.005-2.442.9834-2.448 2.2067z" fill="#000" fill-rule="evenodd"/></svg>