<svg xmlns="http://www.w3.org/2000/svg" width="686" height="255" viewBox="0 0 686 255">
    <g fill="none" fill-rule="evenodd">
        <path fill="#FFF" d="M-617-190h1920V890H-617z"/>
        <g fill="#C1C0C5" fill-rule="nonzero">
            <path d="M573.646 167.728h2.968v29.347h-2.968zM227.457 202.351c-12.093 0-21.877 9.893-21.877 21.873 0 12.09 9.894 21.873 21.877 21.873 11.983 0 21.878-9.892 21.878-21.873.11-11.98-9.785-21.873-21.878-21.873zm0 40.888c-10.444 0-18.909-8.573-18.909-18.905s8.575-18.905 18.91-18.905c10.443 0 18.908 8.573 18.908 18.905s-8.355 18.905-18.909 18.905zM429.85 202.351c-12.094 0-21.878 9.893-21.878 21.873 0 12.09 9.894 21.873 21.877 21.873 11.983 0 21.878-9.892 21.878-21.873.11-11.98-9.785-21.873-21.878-21.873zm0 40.888c-10.445 0-18.91-8.573-18.91-18.905s8.575-18.905 18.91-18.905c10.443 0 18.908 8.573 18.908 18.905s-8.355 18.905-18.909 18.905z"/>
            <path d="M453.486 242.47l29.243-4.397c.33 0 .44-.11.77-.33l10.773-8.902c.33-.33.55-.77.55-1.21v-12.53c0-6.595-3.409-12.09-9.895-15.827-4.177-2.308-17.37-8.464-18.909-9.123-2.198-1.869-4.397-3.517-6.486-4.287h-.33c-4.837-.989-10.444-2.088-16.82-2.967h-.33c-12.972-1.76-28.693-3.298-44.854-4.287-6.046-2.968-56.397-27.698-65.411-29.677-19.46-4.286-39.577-.44-52.88 2.089l-2.528.44c-10.884 2.088-34.52 7.803-55.518 13.409v-64.85h-2.968v65.729c-.99.33-1.869.55-2.968.77V99.911h-2.749v67.267c-10.444 2.858-19.678 5.496-25.285 7.254-4.178 1.32-22.537.99-29.353.77-.55 0-.99.33-1.32.769-.329.44-.329.99 0 1.429l7.037 11.65-3.518 4.617-.11.33-8.905 11.321c-.33.44-.44.88-.33 1.319l8.465 27.588c.11.55.55.88 1.21.99l43.534 6.375c2.969 3.956 6.816 7.254 11.214 9.452h-72.998v2.968H513.95v-2.968h-71.128c4.177-1.978 7.915-4.946 10.664-8.573zm-23.637 8.683c-14.731 0-26.824-12.09-26.824-26.819 0-14.728 12.093-26.819 26.824-26.819 14.732 0 26.825 12.09 26.825 26.82 0 14.727-11.873 26.818-26.825 26.818zm-221.08-50.01l-21.988-3.518-23.526-3.847 2.528-3.297h65.302c5.937 0 13.852 1.209 22.757 10.222 10.774 11.1 8.025 30.556 8.025 30.666 0 .44 0 .879.33 1.209.33.33.77.44 1.21.44h138.299c.55 2.088 1.429 3.956 2.528 5.715H253.622c2.529-4.287 3.848-9.343 3.848-14.619 0-16.377-13.412-29.786-29.793-29.786-7.256.11-13.742 2.638-18.909 6.814zm-47.603-4.727l11.213 1.759 11.104 1.758-5.497 5.276-23.526-.33 6.706-8.463zm228.667 7.254l-3.298 26.6H277.588c1.87-23.522-5.936-34.733-10.884-39.46l122.579 2.968c.77 2.968.99 6.375.55 9.892zm68.49-14.948c4.837 2.088 11.213 9.123 14.291 12.86-4.837-.11-10.883-.77-12.972-2.088-2.529-1.76-9.564-8.903-13.742-12.97 4.617.55 8.795 1.319 12.423 2.198zm-.22 13.19c3.408 2.308 12.533 2.638 16.27 2.638h1.43c.55 0 .989-.33 1.319-.88.33-.44.11-.989-.11-1.429-.11-.33-2.089-2.638-4.727-5.715 4.287 2.088 9.124 4.396 11.213 5.605 5.497 3.078 8.465 7.694 8.465 13.3v11.76l-9.894 8.134-26.165 3.957c2.529-4.396 3.958-9.452 3.958-14.728 0-16.377-13.412-29.787-29.793-29.787-16.38 0-29.792 13.41-29.792 29.787 0 2.088.11 3.957.55 5.935h-11.214l3.298-26.27c.44-3.516.33-6.924-.44-10.001l18.8.44v-2.968l-19.79-.44c-1.318-3.297-3.297-5.935-5.936-7.804l-4.287-2.638c5.057.33 10.004.55 15.06.88 16.381 1.209 31.882 2.528 44.855 4.286 2.089 1.979 13.302 13.41 16.93 15.938zM237.79 174.323l-2.638-2.198c12.093-3.517 62.553-17.696 85.42-15.388 11.323 1.21 37.378 13.85 49.581 20.334-46.942-2.308-91.796-2.638-92.566-2.638l-39.797-.11zm-50.13 2.858c17.59-5.606 71.128-19.455 89.268-22.862l2.528-.44c12.972-2.528 32.76-6.155 51.67-2.088 7.036 1.649 42.985 18.905 58.266 26.27-3.958-.33-8.025-.44-11.983-.77-6.926-3.737-41.776-22.093-56.397-23.632-26.715-2.637-86.85 15.498-89.268 16.378-.55.11-.88.55-.99 1.209-.11.55.11.989.44 1.429l2.089 1.758h-15.94v2.968h60.464c.77 0 48.812.33 97.293 2.858l8.685 5.495c1.76 1.32 3.298 3.298 4.288 5.276l-126.207-3.077c-.77 0-1.319.44-1.429 1.209-.11.769.11 1.319.77 1.648.11.11 15.94 8.024 13.302 39.57h-9.564c.44-5.277.989-21.214-8.905-31.546-9.565-9.892-18.36-11.101-24.846-11.101h-65.412l-5.716-9.453c6.486.11 22.976.22 27.594-1.099zm-26.275 55.397l-7.476-24.511 24.626.33c.44 0 .77-.11.99-.44l7.475-7.364 19.019 3.077c-5.167 5.276-8.245 12.53-8.245 20.554 0 5.166 1.319 10.002 3.518 14.179l-39.907-5.825zm39.247-8.244c0-14.728 12.093-26.819 26.824-26.819 14.732 0 26.825 12.09 26.825 26.82 0 14.727-12.093 26.818-26.825 26.818-14.731 0-26.824-12.09-26.824-26.819zm39.687 26.819c4.397-2.088 8.245-5.276 11.213-9.343h154.24c2.969 3.957 6.816 7.035 11.214 9.343H240.32zM111.695 232.688l8.355 8.243v10.222h-18.36v-22.532l9.015-9.013-2.088-2.199-6.926 7.035v-12.2h-2.969v22.642l-7.915-7.914-2.089 2.088 10.004 10.002v12.091H.33v2.968h122.578v-14.29l-9.124-9.232zM685.12 251.153H576.615v-45.065c4.727-.33 8.465-4.176 8.465-9.013v-29.347c0-5.056-3.958-9.012-9.015-9.012h-1.759c-5.057 0-9.015 3.956-9.015 9.012v29.347c0 4.727 3.738 8.574 8.465 9.013v45.065H534.18v-14.289l21.987-21.983-2.09-2.088-8.134 8.134v-8.244h-2.969v11.211l-8.685 8.684v-18.906l14.292-14.288-2.089-2.089-12.203 12.2v-20.993h-2.968v30.226l-8.685-8.683v-11.21h-2.968v8.243l-5.717-5.716-2.088 2.088 19.458 19.455v19.455l-19.019-19.125-2.089 2.088 21.108 21.104v7.694h154.02v-2.968h-.22zM568.15 197.185v-29.347a6.028 6.028 0 0 1 6.046-6.045h1.76a6.028 6.028 0 0 1 6.046 6.045v29.347a6.028 6.028 0 0 1-6.047 6.046h-1.759c-3.298 0-6.046-2.858-6.046-6.046zM233.394 96.065l24.076-24.071V37.92l-24.076-24.07h-34.08l-24.076 24.07v34.074l24.076 24.07h34.08zm-55.188-56.826l22.317-22.312h31.552l22.427 22.312v31.545l-22.317 22.313h-31.552l-22.317-22.313V39.24h-.11zM211.956 7.144h8.905v2.968h-8.905zM142.587 134.754l-5.057-5.056 5.057-5.166-2.089-2.088-4.947 5.056-5.057-5.056-2.199 2.088 5.167 5.166-5.167 5.056 2.199 1.979 5.057-4.946 4.947 4.946zM463.49 43.746l5.057-4.946 5.167 4.946 2.089-1.979-5.057-5.056 5.057-5.056-2.09-1.978-5.166 4.946-5.057-4.946-1.98 1.978 4.948 5.056-4.947 5.056zM59.585 204.77l5.167-4.947 5.057 4.946 2.09-1.978-5.058-5.056 5.057-5.056-2.089-1.979-5.057 4.947-5.167-4.947-1.979 1.979 4.948 5.056-4.948 5.056zM498.999 149.043l5.167-5.056 4.947 5.056 2.089-2.088-5.057-5.056 5.057-4.946-2.089-2.089-4.947 5.056-5.167-5.056-2.089 2.089 5.057 4.946-5.057 5.056z"/>
            <path d="M619.709 219.828l5.057-5.166 4.947 5.166 2.089-2.199-4.948-4.946 4.948-5.056-2.09-2.088-4.946 5.056-5.057-5.056-2.09 2.088 5.058 5.056-5.057 4.946zM259.669 22.532h2.638l.88-6.814h3.298l-.88 6.814h2.639l.88-6.814h2.638v-2.309h-2.2l.55-4.616h2.639V6.485h-2.199l.88-6.375h-2.639l-.88 6.375h-3.297l.88-6.375h-2.64l-.879 6.375h-2.638v2.308h2.199l-.55 4.616h-2.639v2.309h2.2l-.88 6.814zm4.617-13.739h3.298l-.55 4.616h-3.298l.55-4.616zM291 45.724h-7.475v-9.452h6.376v-2.968h-6.376V23.85H291v-2.967h-10.773v27.808H291zM297.926 34.953c0-2.309 1.43-3.737 3.738-3.737h.88v-3.078c-1.32 0-2.31.33-3.298.99-.44.329-.99.878-1.43 1.428v-2.198h-3.188v20.224h3.078v-13.63h.22zM308.48 34.953c0-2.309 1.43-3.737 3.738-3.737h.88v-3.078c-1.32 0-2.31.33-3.299.99-.44.329-.99.878-1.429 1.428v-2.198h-3.078v20.224h3.078v-13.63h.11zM320.683 48.912c1.759 0 3.298-.44 4.288-1.869 1.209-1.649 1.429-4.396 1.429-8.573 0-4.177-.11-6.925-1.43-8.573-.989-1.32-2.528-1.869-4.287-1.869s-3.298.44-4.287 1.869c-1.21 1.648-1.43 4.396-1.43 8.573 0 4.177.33 6.924 1.43 8.573 1.099 1.429 2.418 1.869 4.287 1.869zm-1.649-17.037c.44-.55.99-.88 1.759-.88.77 0 1.43.33 1.759.88.77.99.77 3.078.77 6.815 0 3.737 0 5.715-.77 6.594-.44.55-.99.88-1.76.88-.769 0-1.318-.33-1.758-.88-.77-.989-.88-3.077-.88-6.594 0-3.627.11-5.826.88-6.815zM333.436 34.953c0-2.309 1.429-3.737 3.737-3.737h.88v-3.078c-1.32 0-2.309.33-3.298.99-.44.329-.99.878-1.43 1.428v-2.198h-3.078v20.224h3.079v-13.63h.11zM283.525 76.28h2.968c4.617 0 6.596-2.308 6.596-8.133 0-6.156-2.309-8.134-6.596-8.134h-6.156V87.71h3.408v-11.43h-.22zm0-13.3h2.968c2.528 0 3.078 2.089 3.078 5.167 0 3.077-.55 5.165-3.078 5.165h-2.968V62.981zM297.267 68.696c-1.21 1.21-1.65 2.638-1.65 4.287h3.079c0-.99.11-1.759.77-2.308.44-.44.879-.55 1.648-.55 1.65 0 2.31.99 2.31 2.968v3.297h-2.09c-2.088 0-3.298.44-4.287 1.32-1.21.988-1.76 2.637-1.76 4.615 0 2.089.44 3.737 1.32 4.617.88.989 1.869 1.429 3.408 1.429.99 0 1.759-.33 2.309-.77.44-.33.88-.879 1.209-1.319v1.649h2.968V73.313c0-2.089-.55-3.408-1.649-4.397-.88-.88-2.308-1.429-3.957-1.429-1.21-.22-2.749.33-3.628 1.21zm6.376 13.52c0 1.868-.99 3.077-2.529 3.077-1.649 0-2.528-1.319-2.528-3.407 0-.99.33-2.198.88-2.858.55-.66 1.319-.77 2.198-.77h1.76v3.848h.219v.11zM317.825 91.888c-.44.44-.99.77-1.76.77-.769 0-1.319-.33-1.758-.55-.55-.55-.77-1.43-.77-2.308h-2.968c0 1.758.44 3.297 1.43 4.396.988.99 2.528 1.429 3.957 1.429 1.429 0 3.078-.55 3.957-1.429 1.21-1.209 1.65-2.638 1.65-5.605V67.817h-3.079v1.429a6.3 6.3 0 0 0-1.209-1.21c-.55-.439-1.32-.549-2.199-.549-1.649 0-2.528.44-3.298 1.429-1.21 1.429-1.649 3.847-1.649 8.573 0 4.727.33 7.035 1.65 8.464.879.989 1.758 1.428 3.297 1.428.88 0 1.43-.11 2.09-.55a6.3 6.3 0 0 0 1.208-1.208V88.7c.22 1.54-.11 2.638-.55 3.188zm0-8.244c-.44.44-.99.55-1.65.55-.769 0-1.319-.33-1.758-.88-.77-.879-.88-2.967-.88-6.155 0-3.297.11-5.275.88-6.155.44-.44.88-.879 1.759-.879.55 0 1.209.33 1.649.55.44.44.77 1.209.77 2.308v8.353c0 1.1-.33 1.869-.77 2.308zM327.17 86.502c.989.99 2.198 1.649 3.957 1.649 1.649 0 3.078-.44 3.958-1.429.989-1.21 1.649-2.638 1.649-4.397h-3.079c0 .88-.33 1.76-.77 2.309-.439.44-.989.769-1.758.769-.88 0-1.32-.44-1.76-.88-.769-.879-.879-2.857-.879-5.935h8.246c0-4.286-.11-7.804-1.76-9.562-.989-1.21-2.308-1.649-3.957-1.649-1.65 0-2.968.44-3.958 1.649-1.649 1.649-1.759 4.616-1.759 8.903-.11 4.067.22 6.924 1.87 8.573zm2.198-15.498c.44-.44.88-.879 1.759-.879.88 0 1.43.44 1.759.88.55.769.77 2.308.77 5.165h-5.168c0-2.858.11-4.506.88-5.166zM350.915 72.873c0-1.869.99-2.858 2.309-2.858 1.32 0 2.309.88 2.309 2.858V87.82h3.078V72.873c0-2.198-.44-3.298-1.21-4.177-.879-.99-1.868-1.429-3.407-1.429-.88 0-1.65.33-2.2.55-.439.33-.989.77-1.208 1.209v-1.649h-3.079v20.334h3.079V72.873h.33zM368.175 88.04c1.76 0 3.298-.439 4.288-1.868 1.21-1.648 1.429-4.396 1.429-8.573 0-4.177-.11-6.924-1.43-8.573-.989-1.32-2.528-1.869-4.287-1.869s-3.298.44-4.287 1.869c-1.21 1.649-1.43 4.396-1.43 8.573 0 4.177.33 6.925 1.43 8.573.99 1.32 2.528 1.869 4.287 1.869zm-1.759-17.036c.44-.55.99-.879 1.76-.879.769 0 1.428.33 1.758.88.77.989.77 3.077.77 6.814s0 5.715-.77 6.595c-.44.55-.99.88-1.759.88-.77 0-1.319-.33-1.759-.88-.77-.99-.88-3.078-.88-6.595 0-3.627.11-5.825.88-6.815zM378.51 81.996c0 2.088.549 3.517 1.758 4.616 1.32.99 2.859 1.21 4.618 1.21v-2.969c-2.09 0-3.299-.879-3.299-3.077v-11.87h3.079v-2.529h-3.079v-5.496h-3.078v5.496h-2.308v2.638h2.308v11.98zM395.88 87.821h3.077V70.015h3.079v-2.528h-2.969v-1.759c0-2.088.99-3.077 3.079-3.077v-2.858c-1.76 0-3.299.33-4.618 1.32-1.21.878-1.759 2.307-1.759 4.396v1.868h-2.308v2.528h2.308v17.696h.11v.22zM409.841 88.04c1.759 0 3.298-.439 4.288-1.868 1.209-1.648 1.429-4.396 1.429-8.573 0-4.177-.11-6.924-1.43-8.573-.989-1.32-2.528-1.869-4.287-1.869s-3.298.44-4.287 1.869c-1.21 1.649-1.43 4.396-1.43 8.573 0 4.177.33 6.925 1.43 8.573.989 1.32 2.418 1.869 4.287 1.869zm-1.869-17.036c.44-.55.99-.879 1.76-.879.769 0 1.428.33 1.758.88.77.989.77 3.077.77 6.814s0 5.715-.77 6.595c-.44.55-.99.88-1.759.88-.77 0-1.32-.33-1.759-.88-.77-.99-.88-3.078-.88-6.595 0-3.627.22-5.825.88-6.815zM423.803 88.04c.88 0 1.649-.329 2.199-.549.44-.33.989-.769 1.209-1.209v1.649h3.078V67.597h-3.078v14.838c0 1.869-.99 2.858-2.309 2.858-1.319 0-2.308-.88-2.308-2.858V67.597h-3.079v14.838c0 2.199.44 3.298 1.21 4.177.55.88 1.649 1.429 3.078 1.429zM437.875 72.873c0-1.869.99-2.858 2.308-2.858 1.32 0 2.309.88 2.309 2.858V87.82h3.078V72.873c0-2.198-.44-3.298-1.21-4.177-.879-.99-1.868-1.429-3.407-1.429-.88 0-1.65.33-2.199.55-.44.33-.99.77-1.21 1.209v-1.649h-3.077v20.334h3.078V72.873h.33zM454.255 88.04c.88 0 1.65-.329 2.199-.549.44-.33.99-.879 1.21-1.209v1.649h3.077V60.013h-3.078v9.013a6.3 6.3 0 0 0-1.21-1.21c-.549-.439-1.318-.549-2.198-.549-1.429 0-2.528.44-3.408 1.43-1.32 1.428-1.43 4.286-1.43 8.902 0 4.726.11 7.364 1.43 8.903.99 1.1 2.089 1.539 3.408 1.539zm-.77-17.036c.44-.55.99-.879 1.76-.879.55 0 1.209.11 1.649.55.44.44.88 1.209.88 2.308v9.342c0 .99-.33 1.869-.88 2.309-.44.44-.99.55-1.65.55-.769 0-1.319-.33-1.758-.88-.77-.99-.88-3.078-.88-6.595s.11-5.715.88-6.705zM230.536 20.774h-28.254l-20.118 20.114v28.358l8.465 8.463L239 29.347l-8.465-8.573zm-45.404 47.043v-25.83l18.25-18.246h25.944l5.497 5.496-44.304 44.295-5.387-5.715zM230.536 89.25l20.118-20.114V40.888l-8.465-8.463-48.372 48.362 8.465 8.463h28.254zm11.543-52.649l5.497 5.496v25.94l-18.36 18.355h-25.945l-5.496-5.495L242.079 36.6z"/>
        </g>
    </g>
</svg>
