<svg xmlns="http://www.w3.org/2000/svg" xmlns:xlink="http://www.w3.org/1999/xlink" width="32" height="32" viewBox="0 0 32 32">
    <defs>
        <path id="prefix__a" d="M11.833 1.342L10.658 0.167 6 4.825 1.342 0.167 0.167 1.342 4.825 6 0.167 10.658 1.342 11.833 6 7.175 10.658 11.833 11.833 10.658 7.175 6z"/>
    </defs>
    <g fill="none" fill-rule="evenodd">
        <path fill-rule="nonzero" stroke="#626669" d="M16 .5C11.72.5 7.845 2.235 5.04 5.04 2.235 7.845.5 11.72.5 16c0 4.28 1.735 8.155 4.54 10.96C7.845 29.765 11.72 31.5 16 31.5c4.28 0 8.155-1.735 10.96-4.54 2.805-2.805 4.54-6.68 4.54-10.96 0-4.28-1.735-8.155-4.54-10.96C24.155 2.235 20.28.5 16 .5z"/>
        <g transform="translate(10 10)">
            <mask id="prefix__b" fill="#fff">
                <use xlink:href="#prefix__a"/>
            </mask>
            <g fill="#616161" mask="url(#prefix__b)">
                <path d="M0 0H30V30H0z" transform="translate(-9 -9)"/>
            </g>
        </g>
    </g>
</svg>
